<?xml version="1.0" encoding="UTF-8" standalone="no"?>
<svg
   xmlns:dc="http://purl.org/dc/elements/1.1/"
   xmlns:cc="http://creativecommons.org/ns#"
   xmlns:rdf="http://www.w3.org/1999/02/22-rdf-syntax-ns#"
   xmlns:svg="http://www.w3.org/2000/svg"
   xmlns="http://www.w3.org/2000/svg"
   xmlns:xlink="http://www.w3.org/1999/xlink"
   xmlns:sodipodi="http://sodipodi.sourceforge.net/DTD/sodipodi-0.dtd"
   xmlns:inkscape="http://www.inkscape.org/namespaces/inkscape"
   sodipodi:docname="logo.svg"
   inkscape:version="1.0.2 (e86c870879, 2021-01-15, custom)"
   id="svg8"
   version="1.1"
   viewBox="0 0 135.36472 58.778584"
   height="58.778584mm"
   width="135.36472mm">
  <defs
     id="defs2">
    <linearGradient
       inkscape:collect="always"
       id="linearGradient1060">
      <stop
         style="stop-color:#bfc0c0;stop-opacity:1"
         offset="0"
         id="stop1056" />
      <stop
         style="stop-color:#000000;stop-opacity:0;"
         offset="1"
         id="stop1058" />
    </linearGradient>
    <linearGradient
       id="linearGradient1046"
       inkscape:collect="always">
      <stop
         id="stop1042"
         offset="0"
         style="stop-color:#2d3142;stop-opacity:1" />
      <stop
         id="stop1044"
         offset="1"
         style="stop-color:#ffffff;stop-opacity:1" />
    </linearGradient>
    <linearGradient
       id="linearGradient1040"
       inkscape:collect="always">
      <stop
         id="stop1036"
         offset="0"
         style="stop-color:#2d3142;stop-opacity:1" />
      <stop
         id="stop1038"
         offset="1"
         style="stop-color:#ffffff;stop-opacity:1" />
    </linearGradient>
    <linearGradient
       inkscape:collect="always"
       xlink:href="#linearGradient1040"
       id="linearGradient962"
       x1="43.30127"
       y1="162"
       x2="8.6602535"
       y2="142"
       gradientUnits="userSpaceOnUse" />
    <linearGradient
       inkscape:collect="always"
       xlink:href="#linearGradient1046"
       id="linearGradient1054"
       x1="112.58331"
       y1="30.000006"
       x2="64.951904"
       y2="57.500008"
       gradientUnits="userSpaceOnUse" />
    <linearGradient
       inkscape:collect="always"
       xlink:href="#linearGradient1060"
       id="linearGradient1062"
       x1="134.23393"
       y1="77.500008"
       x2="116.91343"
       y2="57.500008"
       gradientUnits="userSpaceOnUse" />
  </defs>
  <sodipodi:namedview
     id="base"
     pagecolor="#ffffff"
     bordercolor="#666666"
     borderopacity="1.0"
     inkscape:pageopacity="0.0"
     inkscape:pageshadow="2"
     inkscape:zoom="1.4"
     inkscape:cx="223.43728"
     inkscape:cy="89.397781"
     inkscape:document-units="mm"
     inkscape:current-layer="layer5"
     showgrid="true"
     showguides="false"
     inkscape:window-width="1920"
     inkscape:window-height="1002"
     inkscape:window-x="-8"
     inkscape:window-y="-8"
     inkscape:window-maximized="1"
     inkscape:snap-grids="true"
     inkscape:snap-to-guides="true"
     inkscape:document-rotation="0">
    <inkscape:grid
       type="xygrid"
       id="grid4518"
       enabled="false"
       originx="-7.6618542"
       originy="-125.5449" />
    <inkscape:grid
       type="axonomgrid"
       id="grid4520"
       units="mm"
       empspacing="5"
       enabled="true"
       originx="-7.6618542"
       originy="-125.5449" />
  </sodipodi:namedview>
  <metadata
     id="metadata5">
    <rdf:RDF>
      <cc:Work
         rdf:about="">
        <dc:format>image/svg+xml</dc:format>
        <dc:type
           rdf:resource="http://purl.org/dc/dcmitype/StillImage" />
        <dc:title />
      </cc:Work>
    </rdf:RDF>
  </metadata>
  <g
     inkscape:groupmode="layer"
     id="layer7"
     inkscape:label="lA"
     style="display:inline" />
  <g
     inkscape:groupmode="layer"
     id="layer4"
     inkscape:label="right"
     style="display:inline"
     transform="translate(-7.6618541,-25.676523)">
    <path
       style="fill:none;stroke:#fdfdfd;stroke-width:0.264583px;stroke-linecap:butt;stroke-linejoin:miter;stroke-opacity:1"
       d="m 142.89419,51.44167 v 3.011997 c 0,0.994186 0,0.994186 -0.88333,0.484194 L 100.45933,30.948071 C 99.592922,30.447853 99.592922,30.447853 99.592923,29.457039 V 26.4539 c -10e-7,-1.006047 -10e-7,-1.006047 0.859027,-0.510089 l 41.5776,24.004843 c 0.86464,0.499199 0.86464,0.499199 0.86464,1.493016 z"
       id="path898-1"
       inkscape:connector-curvature="0"
       sodipodi:nodetypes="ccccccccc" />
    <path
       style="display:inline;fill:url(#linearGradient1062);fill-opacity:1;stroke:#fdfdfd;stroke-width:0.264583px;stroke-linecap:butt;stroke-linejoin:miter;stroke-opacity:1"
       d="m 95.262795,73.938967 v 3.004284 c 0,1.004602 0,1.004602 0.86981,0.502417 L 133.36646,55.948695 c 0.86748,-0.500842 0.86748,-0.500842 0.86748,-1.512745 v -2.993561 c 0,-0.994536 0,-0.994536 -0.87704,-0.488178 l -37.229669,21.49456 c -0.864436,0.499082 -0.864436,0.499082 -0.864436,1.490196 z"
       id="path894-6"
       inkscape:connector-curvature="0"
       sodipodi:nodetypes="ccccccccc" />
    <path
       style="fill:#2d3142;fill-opacity:1;stroke:#fdfdfd;stroke-width:0.264583px;stroke-linecap:butt;stroke-linejoin:miter;stroke-opacity:1"
       d="m 100.41502,79.765133 41.56691,-23.998675 c 0.86873,-0.50156 0.86873,-0.50156 -0.0108,-1.00936 l -41.55932,-23.99428 c -0.862422,-0.49792 -0.862422,-0.49792 -1.734651,0.006 l -2.616898,1.51053 c -0.840998,0.48555 -0.840998,0.48555 0.01074,0.97731 l 37.245909,21.50393 c 0.8735,0.50431 0.8735,0.50431 0.004,1.00629 L 96.085683,77.264703 c -0.86637,0.50019 -0.86637,0.50019 -0.01529,0.99157 l 2.601058,1.50172 c 0.877988,0.5069 0.877988,0.5069 1.743619,0.007 z"
       id="path816-5-0"
       inkscape:connector-curvature="0"
       sodipodi:nodetypes="cccccccccccccc" />
    <path
       style="fill:#ffffff;stroke:#fdfdfd;stroke-width:0.264583px;stroke-linecap:butt;stroke-linejoin:miter;stroke-opacity:1"
       d="m 98.726896,25.947858 -2.584426,1.49212 c -0.867926,0.5011 -0.867926,0.5011 -0.867926,1.51056 v 2.98542 c 0,1.00512 0,1.00512 0.851345,0.5136 l 2.588361,-1.49439 c 0.890421,-0.51409 0.890421,-0.51409 0.890422,-1.53511 v -2.97537 c -10e-7,-1.00361 -10e-7,-1.00361 -0.877776,-0.49683 z"
       id="path848-0"
       inkscape:connector-curvature="0"
       sodipodi:nodetypes="ccccccccc" />
  </g>
  <g
     inkscape:groupmode="layer"
     id="layer3"
     inkscape:label="down"
     transform="translate(-7.6618541,-25.676523)"
     style="display:inline" />
  <g
     inkscape:groupmode="layer"
     id="layer2"
     inkscape:label="inside"
     style="display:inline"
     transform="translate(-7.6618541,-25.676523)" />
  <g
     inkscape:groupmode="layer"
     id="layer5"
     inkscape:label="sLASH"
     style="display:inline"
     transform="translate(-7.6618541,-25.676523)">
    <path
       style="fill:#2d3142;fill-opacity:1;stroke:#fdfdfd;stroke-width:0.264583px;stroke-linecap:butt;stroke-linejoin:miter;stroke-opacity:1"
       d="m 29.43357,81.01302 v -2.98838 c 0,-1.03116 0,-1.03116 0.880144,-0.52301 l 2.594755,1.49808 c 0.855228,0.49377 0.855228,0.49377 0.855228,1.49359 v 3.00697 c 0,0.99321 0,0.99321 -0.873972,0.48862 L 30.310773,82.49993 C 29.43357,81.99348 29.43357,81.99348 29.43357,81.01302 Z"
       id="path965"
       inkscape:connector-curvature="0"
       sodipodi:nodetypes="ccccccccc" />
    <path
       style="fill:url(#linearGradient1054);fill-opacity:1;stroke:#fdfdfd;stroke-width:0.264583px;stroke-linecap:butt;stroke-linejoin:miter;stroke-opacity:1"
       d="m 30.310883,77.5 2.597453,1.49964 c 0.855361,0.49384 0.855361,0.49384 1.708986,0.001 L 119.51272,29.986261 c 0.85353,-0.492781 0.85353,-0.492781 -0.0309,-1.00339 l -2.57044,-1.484056 C 116.0361,26.99348 116.0361,26.99348 115.17862,27.488545 L 30.313149,76.48565 C 29.43357,76.99348 29.43357,76.99348 30.310889,77.5 Z"
       id="path829"
       inkscape:connector-curvature="0"
       sodipodi:nodetypes="ccccccccc" />
    <path
       style="fill:#2d3142;fill-opacity:1;stroke:#fdfdfd;stroke-width:0.264583px;stroke-linecap:butt;stroke-linejoin:miter;stroke-opacity:1"
       d="M 34.643299,83.98564 119.49071,34.998968 c 0.87554,-0.505488 0.87554,-0.505488 0.87553,-1.486458 v -2.990078 c 10e-6,-1.028952 10e-6,-1.028952 -0.88318,-0.519057 L 34.637299,78.98911 c -0.873602,0.50437 -0.873602,0.50437 -0.873602,1.50418 v 3.03563 c 0,0.96456 0,0.96456 0.879602,0.45672 z"
       id="path831"
       inkscape:connector-curvature="0"
       sodipodi:nodetypes="ccccccccc" />
    <path
       style="fill:#ffffff;stroke:#fdfdfd;stroke-width:0.264583px;stroke-linecap:butt;stroke-linejoin:miter;stroke-opacity:1"
       d="m 116.0474,28.022861 v 2.990078 c 0,0.987061 0,0.987061 0.89307,1.502677 l 2.58034,1.489758 C 120.37753,34.5 120.37753,34.5 120.37753,33.518591 V 30.4784 c 0,-0.9784 0,-0.9784 -0.85438,-1.471675 l -2.58227,-1.490878 C 116.0474,27 116.0474,27 116.0474,28.022861 Z"
       id="path883"
       inkscape:connector-curvature="0"
       sodipodi:nodetypes="ccccccccc" />
  </g>
  <g
     inkscape:label="left_under"
     inkscape:groupmode="layer"
     id="layer1"
     transform="translate(-7.6618541,-112.67652)"
     style="display:inline">
    <path
       style="display:inline;fill:#bfc0c0;fill-opacity:1;stroke:#fdfdfd;stroke-width:0.264583px;stroke-linecap:butt;stroke-linejoin:miter;stroke-opacity:1"
       d="m 55.425625,119.0089 v -3.00428 c 0,-1.00461 0,-1.00461 -0.86981,-0.50242 l -37.233851,21.49697 c -0.867482,0.50085 -0.867482,0.50085 -0.867482,1.51275 v 2.99356 c 0,0.99453 0,0.99453 0.877037,0.48818 l 37.22967,-21.49456 c 0.864436,-0.49909 0.864436,-0.49909 0.864436,-1.4902 z"
       id="path894"
       inkscape:connector-curvature="0"
       sodipodi:nodetypes="ccccccccc" />
    <path
       style="fill:url(#linearGradient962);fill-opacity:1;stroke:#fdfdfd;stroke-width:0.264583px;stroke-linecap:butt;stroke-linejoin:miter;stroke-opacity:1"
       d="m 7.7942282,141.5062 v -3.012 c 0,-0.99418 0,-0.99418 0.8833343,-0.48419 L 50.229093,161.9998 c 0.866405,0.50021 0.866405,0.50021 0.866404,1.49103 v 3.00314 c 10e-7,1.00604 10e-7,1.00604 -0.859024,0.51009 L 8.6588677,142.99921 C 7.7942282,142.50002 7.7942282,142.50002 7.7942282,141.5062 Z"
       id="path898"
       inkscape:connector-curvature="0"
       sodipodi:nodetypes="ccccccccc" />
    <path
       style="fill:#ffffff;fill-opacity:1;stroke:#fdfdfd;stroke-width:0.264583px;stroke-linecap:butt;stroke-linejoin:miter;stroke-opacity:1"
       d="M 50.273399,113.18273 8.7064952,137.1814 c -0.868735,0.50156 -0.868735,0.50156 0.0108,1.00936 l 41.5593118,23.99428 c 0.862425,0.49792 0.862425,0.49792 1.734654,-0.006 l 2.616898,-1.51052 c 0.840998,-0.48555 0.840998,-0.48555 -0.01074,-0.97731 L 17.371508,138.18727 c -0.873494,-0.50431 -0.873494,-0.50431 -0.0041,-1.00628 l 37.235329,-21.49783 c 0.86637,-0.50019 0.86637,-0.50019 0.01529,-0.99157 l -2.601058,-1.50172 c -0.877988,-0.5069 -0.877988,-0.5069 -1.743617,-0.007 z"
       id="path816-5"
       inkscape:connector-curvature="0"
       sodipodi:nodetypes="cccccccccccccc" />
    <path
       style="fill:#000000;stroke:#fdfdfd;stroke-width:0.264583px;stroke-linecap:butt;stroke-linejoin:miter;stroke-opacity:1"
       d="m 51.961524,167 2.584426,-1.49212 c 0.867926,-0.5011 0.867926,-0.5011 0.867926,-1.51056 v -2.98541 c 0,-1.00513 0,-1.00513 -0.851345,-0.5136 l -2.588361,1.49439 c -0.890421,0.51409 -0.890421,0.51409 -0.890422,1.5351 v 2.97537 c 10e-7,1.00362 10e-7,1.00362 0.877776,0.49683 z"
       id="path848"
       inkscape:connector-curvature="0"
       sodipodi:nodetypes="ccccccccc" />
  </g>
  <g
     inkscape:groupmode="layer"
     id="layer6"
     inkscape:label="SHADOW"
     style="display:inline" />
  <g
     inkscape:groupmode="layer"
     id="layer8"
     inkscape:label="Lu"
     style="display:inline" />
</svg>
