<?xml version="1.0" encoding="UTF-8" standalone="no"?>
<svg
   xmlns:dc="http://purl.org/dc/elements/1.1/"
   xmlns:cc="http://creativecommons.org/ns#"
   xmlns:rdf="http://www.w3.org/1999/02/22-rdf-syntax-ns#"
   xmlns:svg="http://www.w3.org/2000/svg"
   xmlns="http://www.w3.org/2000/svg"
   xmlns:sodipodi="http://sodipodi.sourceforge.net/DTD/sodipodi-0.dtd"
   xmlns:inkscape="http://www.inkscape.org/namespaces/inkscape"
   width="201.08334mm"
   height="201.08334mm"
   viewBox="0 0 201.08334 201.08335"
   version="1.1"
   id="svg8"
   inkscape:version="1.0.2 (e86c870879, 2021-01-15, custom)"
   sodipodi:docname="eolienne.svg">
  <defs
     id="defs2" />
  <sodipodi:namedview
     id="base"
     pagecolor="#ffffff"
     bordercolor="#666666"
     borderopacity="1.0"
     inkscape:pageopacity="0.0"
     inkscape:pageshadow="2"
     inkscape:zoom="0.82030996"
     inkscape:cx="417.92978"
     inkscape:cy="340.23384"
     inkscape:document-units="mm"
     inkscape:current-layer="layer1"
     inkscape:document-rotation="0"
     showgrid="true"
     inkscape:window-width="1920"
     inkscape:window-height="1002"
     inkscape:window-x="-8"
     inkscape:window-y="-8"
     inkscape:window-maximized="1">
    <inkscape:grid
       type="xygrid"
       id="grid833"
       originx="5.2916773"
       originy="-42.333336" />
  </sodipodi:namedview>
  <metadata
     id="metadata5">
    <rdf:RDF>
      <cc:Work
         rdf:about="">
        <dc:format>image/svg+xml</dc:format>
        <dc:type
           rdf:resource="http://purl.org/dc/dcmitype/StillImage" />
        <dc:title />
      </cc:Work>
    </rdf:RDF>
  </metadata>
  <g
     inkscape:groupmode="layer"
     id="layer3"
     inkscape:label="pillier"
     transform="translate(5.2916765,-42.333336)" />
  <g
     inkscape:label="Elices"
     inkscape:groupmode="layer"
     id="layer1"
     transform="translate(5.2916765,-42.333336)">
    <path
       style="fill:#000000;stroke:#000000;stroke-width:1.85208333;stroke-linecap:butt;stroke-linejoin:miter;stroke-miterlimit:4;stroke-dasharray:none;stroke-opacity:1"
       d="m 91.016675,157.16248 -5.11355,79.26006 c -0.17812,2.76078 -0.17812,2.76078 2.40562,2.76078 h 18.508445 c 2.72034,0 2.72034,0 2.35727,-2.81383 L 98.954175,157.16248 Z"
       id="path937"
       sodipodi:nodetypes="ccccccc" />
    <g
       id="g908"
       style="stroke-width:1.85208333;stroke-miterlimit:4;stroke-dasharray:none"
       transform="rotate(-7.187386,104.91752,190.94618)">
      <path
         style="fill:#ffffff;stroke:#000000;stroke-width:1.85208333;stroke-linecap:butt;stroke-linejoin:miter;stroke-miterlimit:4;stroke-dasharray:none;stroke-opacity:1"
         d="m 89.958333,152.13542 -10.989656,-1.50099 c -3.839753,-0.52446 -3.839753,-0.52446 -8.978042,2.04891 L 0.42132983,187.52537 c -2.31482523,1.15931 -2.31482523,1.15931 -0.59999932,3.41666 1.48617149,1.95637 1.48617149,1.95637 3.88512119,1.26974 L 99.561307,164.77656"
         id="path839-5"
         sodipodi:nodetypes="ccccccc" />
      <path
         style="fill:#ffffff;stroke:#000000;stroke-width:1.85208333;stroke-linecap:butt;stroke-linejoin:miter;stroke-miterlimit:4;stroke-dasharray:none;stroke-opacity:1"
         d="m 109.80208,146.84375 6.79472,-8.76682 c 2.37407,-3.06309 2.37407,-3.06309 2.7146,-8.79967 l 4.61059,-77.669786 c 0.15341,-2.584357 0.15341,-2.584357 -2.65891,-2.227956 -2.43736,0.308881 -2.43736,0.308881 -3.0422,2.729752 L 94.053045,148.8396"
         id="path839"
         sodipodi:nodetypes="ccccccc" />
      <path
         style="fill:#ffffff;stroke:#000000;stroke-width:1.85208333;stroke-linecap:butt;stroke-linejoin:miter;stroke-miterlimit:4;stroke-dasharray:none;stroke-opacity:1"
         d="m 101.86458,168.01042 4.19493,10.26781 c 1.46568,3.58756 1.46568,3.58756 6.26344,6.75076 l 64.95873,42.82778 c 2.16141,1.42504 2.16141,1.42504 3.25892,-1.18871 0.95117,-2.26525 0.95117,-2.26525 -0.84294,-3.9995 l -71.68701,-69.29513"
         id="path839-3"
         sodipodi:nodetypes="ccccccc" />
    </g>
    <circle
       style="fill:#000000;fill-rule:evenodd;stroke:#000000;stroke-width:1.05833;stroke-miterlimit:4;stroke-dasharray:none;stroke-opacity:1"
       id="path871-7"
       cx="94.932625"
       cy="156.37474"
       r="13.800459" />
    <circle
       style="fill:#ffffff;fill-rule:evenodd;stroke:#000000;stroke-width:1.05833;stroke-miterlimit:4;stroke-dasharray:none;stroke-opacity:1"
       id="path871"
       cx="94.932625"
       cy="156.37474"
       r="9.4416971" />
    <path
       style="fill:#000000;stroke:none;stroke-width:0.264583px;stroke-linecap:butt;stroke-linejoin:miter;stroke-opacity:1;fill-opacity:1"
       d="M -1.322916,202.40625 3.9687506,198.4375 9.2604172,202.40625 2.645834,206.375 Z"
       id="path938" />
    <path
       style="fill:#000000;fill-opacity:1;stroke:none;stroke-width:0.264583px;stroke-linecap:butt;stroke-linejoin:miter;stroke-opacity:1"
       d="m 106.67748,48.472838 -0.84415,6.560495 -6.534436,1.026555 1.766476,-7.50888 z"
       id="path938-3" />
    <path
       style="fill:#000000;fill-opacity:1;stroke:none;stroke-width:0.264583px;stroke-linecap:butt;stroke-linejoin:miter;stroke-opacity:1"
       d="m 182.5625,219.60417 -5.70249,-3.35177 1.62102,-6.41287 6.21269,4.57234 z"
       id="path938-5" />
  </g>
  <g
     inkscape:groupmode="layer"
     id="layer2"
     inkscape:label="rotor"
     transform="translate(5.2916765,-42.333336)" />
</svg>
