<?xml version="1.0" encoding="UTF-8" standalone="no"?>
<svg
   xmlns:dc="http://purl.org/dc/elements/1.1/"
   xmlns:cc="http://creativecommons.org/ns#"
   xmlns:rdf="http://www.w3.org/1999/02/22-rdf-syntax-ns#"
   xmlns:svg="http://www.w3.org/2000/svg"
   xmlns="http://www.w3.org/2000/svg"
   xmlns:sodipodi="http://sodipodi.sourceforge.net/DTD/sodipodi-0.dtd"
   xmlns:inkscape="http://www.inkscape.org/namespaces/inkscape"
   width="201.08334mm"
   height="201.08334mm"
   viewBox="0 0 201.08334 201.08335"
   version="1.1"
   id="svg8"
   inkscape:version="1.0.2 (e86c870879, 2021-01-15, custom)"
   sodipodi:docname="solaire.svg">
  <defs
     id="defs2" />
  <sodipodi:namedview
     id="base"
     pagecolor="#ffffff"
     bordercolor="#666666"
     borderopacity="1.0"
     inkscape:pageopacity="0.0"
     inkscape:pageshadow="2"
     inkscape:zoom="0.82030997"
     inkscape:cx="284.89383"
     inkscape:cy="409.23221"
     inkscape:document-units="mm"
     inkscape:current-layer="layer1"
     inkscape:document-rotation="0"
     showgrid="true"
     inkscape:window-width="1920"
     inkscape:window-height="1002"
     inkscape:window-x="-8"
     inkscape:window-y="-8"
     inkscape:window-maximized="1">
    <inkscape:grid
       type="xygrid"
       id="grid833"
       originx="5.2916773"
       originy="-42.333336" />
  </sodipodi:namedview>
  <metadata
     id="metadata5">
    <rdf:RDF>
      <cc:Work
         rdf:about="">
        <dc:format>image/svg+xml</dc:format>
        <dc:type
           rdf:resource="http://purl.org/dc/dcmitype/StillImage" />
        <dc:title />
      </cc:Work>
    </rdf:RDF>
  </metadata>
  <g
     inkscape:groupmode="layer"
     id="layer3"
     inkscape:label="pillier"
     transform="translate(5.2916765,-42.333336)" />
  <g
     inkscape:label="Elices"
     inkscape:groupmode="layer"
     id="layer1"
     transform="translate(5.2916765,-42.333336)">
    <circle
       style="font-variation-settings:normal;vector-effect:none;fill:#2d3142;fill-opacity:1;fill-rule:evenodd;stroke:#ef8354;stroke-width:1.85209;stroke-linecap:butt;stroke-linejoin:miter;stroke-miterlimit:4;stroke-dasharray:none;stroke-dashoffset:0;stroke-opacity:1;stop-color:#000000"
       id="path2533"
       cx="45.498363"
       cy="94.378731"
       r="36.94318" />
    <circle
       style="font-variation-settings:normal;vector-effect:none;fill:#ef8354;fill-opacity:1;fill-rule:evenodd;stroke:none;stroke-width:1.85209;stroke-linecap:butt;stroke-linejoin:miter;stroke-miterlimit:4;stroke-dasharray:none;stroke-dashoffset:0;stroke-opacity:1;stop-color:#000000"
       id="path2535"
       cx="50.263416"
       cy="94.53907"
       r="26.81864" />
    <circle
       style="font-variation-settings:normal;vector-effect:none;fill:#2d3142;fill-opacity:1;fill-rule:evenodd;stroke:none;stroke-width:1.85209;stroke-linecap:butt;stroke-linejoin:miter;stroke-miterlimit:4;stroke-dasharray:none;stroke-dashoffset:0;stroke-opacity:1;stop-color:#000000"
       id="path2535-0"
       cx="45.135181"
       cy="96.082527"
       r="28.376675" />
    <path
       style="fill:#ef8354;fill-opacity:1;stroke:none;stroke-width:0.264583px;stroke-linecap:butt;stroke-linejoin:miter;stroke-opacity:1"
       d="M 24.303725,209.55 H 177.76206 c 5.4323,0 5.4323,0 4.10872,-5.17399 L 155.45859,101.12836 c -1.36839,-5.34919 -1.49199,-5.34919 -6.8007,-5.34919 H 53.218903 c -4.962042,0 -4.962042,0 -6.4047,5.63948 L 20.572966,203.99803 C 19.152694,209.55 19.152694,209.55 24.303725,209.55 Z"
       id="path2409"
       sodipodi:nodetypes="ccccccccc" />
    <path
       style="fill:#2d3142;fill-opacity:1;stroke:none;stroke-width:0.264583px;stroke-linecap:butt;stroke-linejoin:miter;stroke-opacity:1"
       d="M 40.319361,116.94583 H 162.0277 l 2.64583,5.29163 H 37.673528 Z"
       id="path2411" />
    <path
       id="path2411-7"
       style="fill:#2d3142;fill-opacity:1;stroke:none;stroke-width:0.353121px;stroke-linecap:butt;stroke-linejoin:miter;stroke-opacity:1"
       d="m 72.069506,93.133335 -15.99951,58.130055 c -0.602573,2.41441 -0.21122,2.19494 -2.567612,2.19494 H 27.586433 l -3.141927,7.9375 h 7.931815 17.857308 c 3.86316,0.0243 3.232322,-0.6727 2.146123,3.27371 l -13.819312,50.20933 5.784659,-1.24126 11.828735,-50.28531 c 0.456674,-2.4175 0.361665,-1.95647 2.712495,-1.95647 h 39.618772 c 1.324065,-0.055 1.403143,-0.17238 1.371491,1.10795 l -1.410766,56.94226 5.313374,-2.6014 -0.6935,-54.26955 c -0.0602,-1.17907 0.006,-1.17926 1.20716,-1.17926 h 38.22292 c 1.881,-0.0627 1.56326,-0.18415 1.94697,1.56784 l 11.0983,50.67394 5.3852,1.24126 -13.21358,-51.56491 c -0.57752,-2.22137 -0.93545,-1.91813 1.27957,-1.91813 H 175.257 l -3.14192,-7.9375 h -25.48881 c -1.23714,0.0705 -1.37916,0.15593 -1.67128,-0.98405 L 129.74867,93.133335 v 2.645833 l 12.30038,56.163572 c 0.45732,1.88172 0.54784,1.51559 -1.28141,1.51559 h -36.52181 c -1.41261,0.11439 -1.2777,-0.0579 -1.29449,-1.372 l -0.71933,-56.307162 -0.63873,-2.567802 -1.45831,58.874964 c 0.0218,1.27207 -0.0195,1.37201 -1.086233,1.372 H 61.014662 c -2.889102,0.007 -2.644894,0.55934 -2.005865,-2.15723 L 72.069506,95.779168 Z"
       sodipodi:nodetypes="cccccccccccscccccscccccccccccccccscccccccc" />
  </g>
  <g
     inkscape:groupmode="layer"
     id="layer2"
     inkscape:label="rotor"
     transform="translate(5.2916765,-42.333336)" />
</svg>
