<?xml version="1.0" encoding="UTF-8" standalone="no"?>
<svg
   xmlns:dc="http://purl.org/dc/elements/1.1/"
   xmlns:cc="http://creativecommons.org/ns#"
   xmlns:rdf="http://www.w3.org/1999/02/22-rdf-syntax-ns#"
   xmlns:svg="http://www.w3.org/2000/svg"
   xmlns="http://www.w3.org/2000/svg"
   xmlns:sodipodi="http://sodipodi.sourceforge.net/DTD/sodipodi-0.dtd"
   xmlns:inkscape="http://www.inkscape.org/namespaces/inkscape"
   width="201.08334mm"
   height="201.08334mm"
   viewBox="0 0 201.08334 201.08335"
   version="1.1"
   id="svg8"
   inkscape:version="1.0.2 (e86c870879, 2021-01-15, custom)"
   sodipodi:docname="thermique.svg">
  <defs
     id="defs2" />
  <sodipodi:namedview
     id="base"
     pagecolor="#ffffff"
     bordercolor="#666666"
     borderopacity="1.0"
     inkscape:pageopacity="0.0"
     inkscape:pageshadow="2"
     inkscape:zoom="0.58004674"
     inkscape:cx="304.84721"
     inkscape:cy="375.79142"
     inkscape:document-units="mm"
     inkscape:current-layer="layer1"
     inkscape:document-rotation="0"
     showgrid="true"
     inkscape:window-width="1920"
     inkscape:window-height="1002"
     inkscape:window-x="-8"
     inkscape:window-y="-8"
     inkscape:window-maximized="1">
    <inkscape:grid
       type="xygrid"
       id="grid833"
       originx="5.2916773"
       originy="-42.333336" />
  </sodipodi:namedview>
  <metadata
     id="metadata5">
    <rdf:RDF>
      <cc:Work
         rdf:about="">
        <dc:format>image/svg+xml</dc:format>
        <dc:type
           rdf:resource="http://purl.org/dc/dcmitype/StillImage" />
        <dc:title />
      </cc:Work>
    </rdf:RDF>
  </metadata>
  <g
     inkscape:groupmode="layer"
     id="layer3"
     inkscape:label="pillier"
     transform="translate(5.2916765,-42.333336)" />
  <g
     inkscape:label="Elices"
     inkscape:groupmode="layer"
     id="layer1"
     transform="translate(5.2916765,-42.333336)">
    <path
       id="path1540-4"
       style="fill:#ef8354;fill-opacity:1;fill-rule:evenodd;stroke:#2d3142;stroke-width:4.25058;stroke-miterlimit:4;stroke-dasharray:none;stroke-opacity:1"
       d="m 80.065666,68.3601 c -3.792825,45.32751 68.263624,63.80575 49.631224,108.64214 -29.64766,76.92652 -96.207018,6.51946 -91.996323,-43.28304 2.624647,-20.59647 16.871585,-23.70385 14.033298,-22.14178 -26.751923,28.72221 32.782316,76.51474 30.480824,42.49066 C 81.194021,147.42465 70.193523,116.46622 67.769939,103.99421 65.560753,92.625591 74.586284,71.547556 80.065666,68.3601 Z"
       sodipodi:nodetypes="cccccsc" />
    <path
       id="path1540"
       style="fill:#ef8354;fill-opacity:1;fill-rule:evenodd;stroke:#2d3142;stroke-width:4.25058;stroke-miterlimit:4;stroke-dasharray:none;stroke-opacity:1"
       d="M 94.626044,54.731671 C 107.2926,109.19921 26.225103,147.26122 56.188261,197.93257 c 48.689969,87.43756 113.896649,-12.77626 99.928699,-72.61179 -6.8114,-24.55547 -24.06651,-25.27595 -20.45787,-23.98226 36.55252,29.268 -24.52628,100.38595 -28.00231,58.39182 -0.009,-8.32269 7.26228,-48.45192 7.83912,-64.185836 0.52581,-14.342 -13.8721,-38.105728 -20.869856,-40.812833 z"
       sodipodi:nodetypes="cccccsc" />
    <path
       id="path1540-2"
       style="fill:#ef8354;fill-opacity:1;fill-rule:evenodd;stroke:#2d3142;stroke-width:4.25058;stroke-miterlimit:4;stroke-dasharray:none;stroke-opacity:1"
       d="m 89.958334,153.45833 c 8.142159,23.49785 -25.935278,44.11188 -10.320655,65.12416 25.611401,36.39896 49.775611,-10.96236 40.807571,-36.77355 -4.15764,-10.54212 -11.8224,-10.05601 -10.16612,-9.65217 17.53058,11.23918 -6.16506,45.54016 -9.66087,27.13012 -0.39234,-3.68033 0.95205,-21.76686 0.47335,-28.75218 -0.43633,-6.36736 -7.912214,-16.20553 -11.133276,-17.07638 z"
       sodipodi:nodetypes="cccccsc" />
  </g>
  <g
     inkscape:groupmode="layer"
     id="layer2"
     inkscape:label="rotor"
     transform="translate(5.2916765,-42.333336)" />
</svg>
