<?xml version="1.0" encoding="UTF-8" standalone="no"?>
<svg
   xmlns:dc="http://purl.org/dc/elements/1.1/"
   xmlns:cc="http://creativecommons.org/ns#"
   xmlns:rdf="http://www.w3.org/1999/02/22-rdf-syntax-ns#"
   xmlns:svg="http://www.w3.org/2000/svg"
   xmlns="http://www.w3.org/2000/svg"
   xmlns:sodipodi="http://sodipodi.sourceforge.net/DTD/sodipodi-0.dtd"
   xmlns:inkscape="http://www.inkscape.org/namespaces/inkscape"
   width="201.08334mm"
   height="201.08334mm"
   viewBox="0 0 201.08334 201.08335"
   version="1.1"
   id="svg8"
   inkscape:version="1.0.2 (e86c870879, 2021-01-15, custom)"
   sodipodi:docname="thermique.svg">
  <defs
     id="defs2" />
  <sodipodi:namedview
     id="base"
     pagecolor="#ffffff"
     bordercolor="#666666"
     borderopacity="1.0"
     inkscape:pageopacity="0.0"
     inkscape:pageshadow="2"
     inkscape:zoom="0.58004674"
     inkscape:cx="27.283372"
     inkscape:cy="467.16337"
     inkscape:document-units="mm"
     inkscape:current-layer="layer1"
     inkscape:document-rotation="0"
     showgrid="true"
     inkscape:window-width="1920"
     inkscape:window-height="1002"
     inkscape:window-x="-8"
     inkscape:window-y="-8"
     inkscape:window-maximized="1">
    <inkscape:grid
       type="xygrid"
       id="grid833"
       originx="5.2916773"
       originy="-42.333336" />
  </sodipodi:namedview>
  <metadata
     id="metadata5">
    <rdf:RDF>
      <cc:Work
         rdf:about="">
        <dc:format>image/svg+xml</dc:format>
        <dc:type
           rdf:resource="http://purl.org/dc/dcmitype/StillImage" />
        <dc:title />
      </cc:Work>
    </rdf:RDF>
  </metadata>
  <g
     inkscape:groupmode="layer"
     id="layer3"
     inkscape:label="pillier"
     transform="translate(5.2916765,-42.333336)" />
  <g
     inkscape:label="Elices"
     inkscape:groupmode="layer"
     id="layer1"
     transform="translate(5.2916765,-42.333336)">
    <path
       style="fill:#ffffff;fill-opacity:1;stroke:#000000;stroke-width:1.85199994;stroke-linecap:butt;stroke-linejoin:miter;stroke-miterlimit:4;stroke-dasharray:none;stroke-opacity:1"
       d="M 35.351311,235.93634 H 164.94058 c 5.87416,0 5.87416,0 4.76985,-6.2578 L 154.11795,141.3212 c -1.98253,-10.35245 -1.98253,-10.35245 -11.686,-9.93485 H 62.764407 c -15.139406,-0.4176 -15.139406,-0.4176 -16.940988,11.28426 l -15.302303,86.71305 c -1.156357,6.55268 -1.156357,6.55268 4.830195,6.55268 z"
       id="path939"
       sodipodi:nodetypes="ccccccccc" />
    <path
       id="path941"
       style="fill:#ffffff;fill-rule:evenodd;stroke:#000000;stroke-width:1.85208333;stroke-miterlimit:4;stroke-dasharray:none;stroke-opacity:1"
       d="m 61.365924,48.757179 a 19.395054,19.395054 0 0 0 -16.624439,9.405157 11.087718,11.087718 0 0 0 -6.72698,-2.273704 11.087718,11.087718 0 0 0 -8.240378,3.669096 13.463657,13.463657 0 0 0 -3.639369,-0.501314 13.463657,13.463657 0 0 0 -13.463413,13.463865 13.463657,13.463657 0 0 0 12.773373,13.445848 12.671677,12.671677 0 0 0 -0.101792,1.601682 12.671677,12.671677 0 0 0 12.671579,12.671571 12.671677,12.671677 0 0 0 11.863083,-8.21875 15.047616,15.047616 0 0 0 10.016372,3.818184 15.047616,15.047616 0 0 0 8.753403,-2.808348 14.255636,14.255636 0 0 0 13.441344,10.374004 11.530674,11.530674 0 0 0 -0.449065,3.1867 11.530674,11.530674 0 0 0 11.530671,11.53068 11.530674,11.530674 0 0 0 2.309287,-0.23377 9.2245393,9.2245393 0 0 0 -0.0035,0.23377 9.2245393,9.2245393 0 0 0 9.22454,9.22453 9.2245393,9.2245393 0 0 0 9.22454,-9.22453 9.2245393,9.2245393 0 0 0 -9.22454,-9.22455 9.2245393,9.2245393 0 0 0 -0.23376,0.003 11.530674,11.530674 0 0 0 0.23376,-2.30929 A 11.530674,11.530674 0 0 0 95.250001,95.25 14.255636,14.255636 0 0 0 96.620625,89.151806 14.255636,14.255636 0 0 0 82.364923,74.896558 14.255636,14.255636 0 0 0 79.43451,75.200589 19.395054,19.395054 0 0 0 80.760538,68.152465 19.395054,19.395054 0 0 0 61.365585,48.757511 Z" />
    <path
       id="path1540-4"
       style="fill:#000000;fill-rule:evenodd;stroke:#f9f9f9;stroke-width:1.85208;stroke-miterlimit:4;stroke-dasharray:none;fill-opacity:1;stroke-opacity:1"
       d="m 93.811228,155.97949 c -1.652624,19.75027 29.744082,27.80168 21.625502,47.33796 -12.91819,33.51871 -41.919681,2.84068 -40.084981,-18.85945 1.143621,-8.97437 7.35135,-10.32833 6.114641,-9.6477 -11.656448,12.51495 14.284033,33.33929 13.281218,18.51419 -0.444729,-2.8947 -5.237907,-16.38402 -6.29392,-21.81837 -0.962595,-4.95358 2.970043,-14.13778 5.35754,-15.52663 z"
       sodipodi:nodetypes="cccccsc" />
    <path
       id="path1540"
       style="fill:#000000;fill-rule:evenodd;stroke:#f9f9f9;stroke-width:1.85208;stroke-miterlimit:4;stroke-dasharray:none;fill-opacity:1;stroke-opacity:1"
       d="m 100.15553,150.04126 c 5.51912,23.7328 -29.803913,40.31732 -16.748254,62.39603 21.215374,38.09862 49.627474,-5.56692 43.541304,-31.63868 -2.96789,-10.6994 -10.48635,-11.01333 -8.91398,-10.44964 15.9268,12.75276 -10.68668,43.74054 -12.20127,25.4427 -0.004,-3.62639 3.16435,-21.11165 3.41569,-27.96729 0.22911,-6.24915 -6.0444,-16.60357 -9.09349,-17.78312 z"
       sodipodi:nodetypes="cccccsc" />
    <path
       id="path1540-2"
       style="fill:#000000;fill-rule:evenodd;stroke:#f9f9f9;stroke-width:1.85208;stroke-miterlimit:4;stroke-dasharray:none;fill-opacity:1;stroke-opacity:1"
       d="m 98.121698,193.05881 c 3.547732,10.23857 -11.300616,19.22059 -4.496954,28.37614 11.159496,15.85989 21.688416,-4.77656 17.780826,-16.02311 -1.81158,-4.59345 -5.1513,-4.38164 -4.42962,-4.20568 7.63849,4.89718 -2.68626,19.84293 -4.20947,11.82124 -0.17095,-1.60361 0.41483,-9.48434 0.20625,-12.52801 -0.19012,-2.77441 -3.447539,-7.06113 -4.851032,-7.44058 z"
       sodipodi:nodetypes="cccccsc" />
  </g>
  <g
     inkscape:groupmode="layer"
     id="layer2"
     inkscape:label="rotor"
     transform="translate(5.2916765,-42.333336)" />
</svg>
