<?xml version="1.0" encoding="UTF-8" standalone="no"?>
<svg
   xmlns:dc="http://purl.org/dc/elements/1.1/"
   xmlns:cc="http://creativecommons.org/ns#"
   xmlns:rdf="http://www.w3.org/1999/02/22-rdf-syntax-ns#"
   xmlns:svg="http://www.w3.org/2000/svg"
   xmlns="http://www.w3.org/2000/svg"
   xmlns:sodipodi="http://sodipodi.sourceforge.net/DTD/sodipodi-0.dtd"
   xmlns:inkscape="http://www.inkscape.org/namespaces/inkscape"
   id="b7342f9c-8658-4ac8-9cce-2636d2f50163"
   data-name="Layer 1"
   width="779.13499"
   height="550.24072"
   viewBox="0 0 779.13499 550.24072"
   version="1.1"
   sodipodi:docname="illustration1.svg"
   inkscape:version="1.0.2 (e86c870879, 2021-01-15, custom)">
  <metadata
     id="metadata1719">
    <rdf:RDF>
      <cc:Work
         rdf:about="">
        <dc:format>image/svg+xml</dc:format>
        <dc:type
           rdf:resource="http://purl.org/dc/dcmitype/StillImage" />
      </cc:Work>
    </rdf:RDF>
  </metadata>
  <defs
     id="defs1717" />
  <sodipodi:namedview
     pagecolor="#ffffff"
     bordercolor="#666666"
     borderopacity="1"
     objecttolerance="10"
     gridtolerance="10"
     guidetolerance="10"
     inkscape:pageopacity="0"
     inkscape:pageshadow="2"
     inkscape:window-width="1920"
     inkscape:window-height="1002"
     id="namedview1715"
     showgrid="false"
     inkscape:zoom="1.0794725"
     inkscape:cx="287.48997"
     inkscape:cy="222.20434"
     inkscape:window-x="-8"
     inkscape:window-y="-8"
     inkscape:window-maximized="1"
     inkscape:current-layer="b7342f9c-8658-4ac8-9cce-2636d2f50163"
     inkscape:document-rotation="0" />
  <path
     d="m 726.8513,550.24072 0.95117,-1.75879 c -12.75342,-6.89746 -28.62573,-15.481 -36.916,-29.56738 -8.17237,-13.88623 -8.35572,-32.74268 -0.47852,-49.21094 6.70361,-14.01562 19.01782,-26.57226 35.61108,-36.313 3.273,-1.92138 6.70874,-3.74218 10.0315,-5.50341 8.03149,-4.25635 16.33642,-8.65821 23.18432,-14.90284 9.43165,-8.60107 16.56788,-23.03466 11.249,-35.89111 a -23.85566,23.85566 0 0 0 -20.67749,-14.46728 l -0.1128,1.99707 a -21.8606,21.8606 0 0 1 18.94776,13.248 c 4.94263,11.94727 -1.83862,25.50489 -10.75415,33.63574 -6.66065,6.07374 -14.85181,10.415 -22.7732,14.61329 -3.34155,1.771 -6.79711,3.60253 -10.10766,5.54589 -16.93848,9.94336 -29.52637,22.79786 -36.40259,37.17432 -8.1604,17.06055 -7.94629,36.63672 0.55908,51.08887 8.57278,14.56597 24.71658,23.29692 37.6885,30.31157 z"
     fill="#f1f1f1"
     id="path1638"
     style="fill:#bfc0c0;fill-opacity:1" />
  <ellipse
     cx="-737.13062"
     cy="364.66714"
     rx="17.5"
     ry="8.5"
     fill="#f1f1f1"
     id="ellipse1640"
     style="fill:#bfc0c0;fill-opacity:1"
     transform="scale(-1,1)" />
  <ellipse
     cx="-723.13062"
     cy="420.66714"
     rx="17.5"
     ry="8.5"
     fill="#f1f1f1"
     id="ellipse1642"
     style="fill:#bfc0c0;fill-opacity:1"
     transform="scale(-1,1)" />
  <ellipse
     cx="-755.13062"
     cy="429.66714"
     rx="17.5"
     ry="8.5"
     fill="#f1f1f1"
     id="ellipse1644"
     style="fill:#bfc0c0;fill-opacity:1"
     transform="scale(-1,1)" />
  <ellipse
     cx="-705.13062"
     cy="476.66714"
     rx="17.5"
     ry="8.5"
     fill="#f1f1f1"
     id="ellipse1646"
     style="fill:#bfc0c0;fill-opacity:1"
     transform="scale(-1,1)" />
  <ellipse
     cx="-670.13062"
     cy="476.66714"
     rx="17.5"
     ry="8.5"
     fill="#f1f1f1"
     id="ellipse1648"
     style="fill:#bfc0c0;fill-opacity:1"
     transform="scale(-1,1)" />
  <path
     d="m 25.46384,464 h 284.83328 a -25.49265,25.49265 0 0 0 25.46385,-25.46385 V 25.46385 A -25.49264,25.49264 0 0 0 310.29712,0 H 25.46384 A -25.49264,25.49264 0 0 0 0,25.46385 v 413.0723 A -25.49264,25.49264 0 0 0 25.46384,464 Z"
     fill="#e6e6e6"
     id="path1650"
     style="fill:#bfc0c0;fill-opacity:1" />
  <path
     d="m 24.96249,447.7535 h 285.836 a -7.85848,7.85848 0 0 0 7.84951,-7.84951 v -415.808 a -7.85848,7.85848 0 0 0 -7.84951,-7.84951 h -285.836 a -7.85848,7.85848 0 0 0 -7.84951,7.84951 v 415.808 a -7.85848,7.85848 0 0 0 7.84951,7.84951 z"
     fill="#fff"
     id="path1652"
     style="fill:#2d3142;fill-opacity:1" />
  <path
     d="M 283.094,290.04973 H 52.672335 a -0.72116,0.72116 0 0 1 -0.72112,-0.72112 v -110.4411 a -0.721115,0.721115 0 0 1 1.44223,0 v 109.72 H 283.094 a -0.72112,0.72112 0 0 1 0,1.44223 z"
     fill="#3f3d56"
     id="path1656"
     style="fill:#4f5d75;fill-opacity:1" />
  <path
     d="M 101.90341,282.11747 H 80.945655 a -2.143,2.143 0 0 1 -2.14063,-2.14046 v -28.89036 a -2.143,2.143 0 0 1 2.14063,-2.14046 h 20.957755 a -2.143,2.143 0 0 1 2.14063,2.14046 v 28.89036 a -2.143,2.143 0 0 1 -2.14063,2.14046 z"
     fill="#6c63ff"
     id="path1658"
     style="fill:#4f5d75;fill-opacity:1" />
  <path
     d="m 140.12249,282.11747 h -20.95775 a -2.143,2.143 0 0 1 -2.14063,-2.14046 v -56.29272 a -2.143,2.143 0 0 1 2.14063,-2.14045 h 20.95775 a -2.143,2.143 0 0 1 2.14063,2.14045 v 56.29272 a -2.143,2.143 0 0 1 -2.14063,2.14046 z"
     fill="#6c63ff"
     id="path1660"
     style="fill:#4f5d75;fill-opacity:1" />
  <path
     d="m 178.34156,282.11747 h -20.95774 a -2.143,2.143 0 0 1 -2.14063,-2.14046 v -28.89036 a -2.143,2.143 0 0 1 2.14063,-2.14046 h 20.95774 a -2.143,2.143 0 0 1 2.14064,2.14046 v 28.89036 a -2.143,2.143 0 0 1 -2.14064,2.14046 z"
     fill="#6c63ff"
     id="path1662"
     style="fill:#4f5d75;fill-opacity:1" />
  <path
     d="m 216.56064,282.11747 h -20.95775 a -2.09618,2.09618 0 0 1 -2.14063,-2.04349 v -67.30337 a -2.09617,2.09617 0 0 1 2.14063,-2.04349 h 20.95775 a -2.09617,2.09617 0 0 1 2.14063,2.04349 v 67.30337 a -2.09618,2.09618 0 0 1 -2.14063,2.04349 z"
     fill="#6c63ff"
     id="path1664"
     style="fill:#4f5d75;fill-opacity:1" />
  <path
     d="m 254.77972,282.11747 h -20.95775 a -2.143,2.143 0 0 1 -2.14063,-2.14046 v -86.57953 a -2.143,2.143 0 0 1 2.14063,-2.14046 h 20.95775 a -2.143,2.143 0 0 1 2.14063,2.14046 v 86.57953 a -2.143,2.143 0 0 1 -2.14063,2.14046 z"
     fill="#6c63ff"
     id="path1666"
     style="fill:#4f5d75;fill-opacity:1" />
  <circle
     cx="91.424568"
     cy="235.96613"
     r="4.3266902"
     fill="#3f3d56"
     id="circle1668"
     style="fill:#4f5d75;fill-opacity:1" />
  <circle
     cx="129.64359"
     cy="207.84267"
     r="4.3266902"
     fill="#3f3d56"
     id="circle1670"
     style="fill:#4f5d75;fill-opacity:1" />
  <circle
     cx="167.86263"
     cy="235.96613"
     r="4.3266902"
     fill="#3f3d56"
     id="circle1672"
     style="fill:#4f5d75;fill-opacity:1" />
  <circle
     cx="206.08176"
     cy="194.14148"
     r="4.3266902"
     fill="#3f3d56"
     id="circle1674"
     style="fill:#4f5d75;fill-opacity:1" />
  <circle
     cx="244.30084"
     cy="178.27696"
     r="4.3266902"
     fill="#3f3d56"
     id="circle1676"
     style="fill:#4f5d75;fill-opacity:1" />
  <polygon
     points="534.363,235.389 573.015,206.438 611.143,234.997 649.031,193.534 649.184,193.472 687.403,178.073 687.942,179.411 649.875,194.749 611.325,236.935 573.015,208.241 535.228,236.543 "
     fill="#3f3d56"
     id="polygon1678"
     style="fill:#4f5d75;fill-opacity:1"
     transform="translate(-443.37133)" />
  <path
     d="m 504.50696,224.48536 a -9.97532,9.97532 0 0 1 7.666,3.58362 l 44.80957,-1.40076 1.7539,-7.55432 23.18946,11.31628 -3,20.68915 -68.29029,-8.7439 a -9.99612,9.99612 0 1 1 -6.12866,-17.89007 z"
     fill="#9f616a"
     id="path1680"
     style="fill:#bfc0c0;fill-opacity:1" />
  <polygon
     points="203.887,537.085 209.72,489.797 191.625,489.798 191.627,537.085 "
     fill="#9f616a"
     id="polygon1682"
     style="fill:#bfc0c0;fill-opacity:1"
     transform="matrix(-1,0,0,1,779.13498,0)" />
  <path
     d="m 590.63491,533.08257 -24.144,-10e-4 h -10e-4 a -15.3873,15.3873 0 0 0 -15.38647,15.38623 v 0.5 l 39.53076,0.001 z"
     fill="#2f2e41"
     id="path1684"
     style="fill:#bfc0c0;fill-opacity:1" />
  <polygon
     points="157.145,530.74 175.877,486.93 158.494,481.907 145.367,527.336 "
     fill="#9f616a"
     id="polygon1686"
     style="fill:#bfc0c0;fill-opacity:1"
     transform="matrix(-1,0,0,1,779.13498,0)" />
  <path
     d="m 635.66138,522.62264 -23.19508,6.70245 -9.4e-4,2.7e-4 a -15.38729,15.38729 0 0 0 -10.50969,19.05325 l 0.13882,0.48034 37.977,-10.974 z"
     fill="#2f2e41"
     id="path1688"
     style="fill:#bfc0c0;fill-opacity:1" />
  <path
     d="m 602.56319,331.74781 c 0,0 4.36065,12.16644 -2.51849,28.76629 l -5.30827,68.36757 -1.57088,97.23228 h -22.35039 l -13.52613,-99.12205 -8.12348,-89.87795 z"
     fill="#2f2e41"
     id="path1690"
     style="fill:#4f5d75;fill-opacity:1" />
  <path
     d="m 615.13407,331.74781 c 0,0 4.36066,12.16644 -2.51849,28.76629 l -5.30826,68.36757 26.42911,92.60369 h -22.35039 l -41.52613,-94.49349 -8.12348,-89.87795 z"
     fill="#2f2e41"
     id="path1692"
     style="fill:#bfc0c0;fill-opacity:1" />
  <circle
     cx="-549.56793"
     cy="150.37671"
     r="24.561029"
     fill="#9f616a"
     id="circle1694"
     style="fill:#bfc0c0;fill-opacity:1"
     transform="scale(-1,1)" />
  <path
     d="m 546.28272,210.12123 4.97733,-23.12665 25.3443,-14.38992 5.13925,7.195 c 0,0 36.26449,9.52971 31.87866,51.172 -4.38583,41.64229 -2.38583,61.64229 -2.38583,61.64229 l 10,46 c 0,0 -3.07821,0.52876 -73.72947,12.87144 l -3,-100 z"
     fill="#cbcbcb"
     id="path1696"
     style="fill:#bfc0c0;fill-opacity:1" />
  <polygon
     points="185.251,481.659 185.251,494.985 208.266,435.17 "
     opacity="0.1"
     id="polygon1698"
     transform="matrix(-1,0,0,1,779.13498,0)" />
  <path
     d="m 576.04978,158.14549 c -2.34185,6.27154 -11.20293,7.14055 -14.32845,1.22045 a -8.05532,8.05532 0 0 1 -0.59139,-1.439 c -0.85617,-2.84351 -0.31764,-5.97591 -1.8989,-8.69474 a -4.59047,4.59047 0 0 0 -1.60475,-1.65782 c -5.25606,-3.10017 -10.42979,6.7369 -15.31761,3.98469 -2.9971,-1.68758 -2.35605,-6.58835 -5.02308,-8.76033 -3.52005,-2.86665 -8.6045,1.40286 -13.11791,0.91535 -5.02171,-0.54242 -7.398,-6.904 -6.30631,-11.83552 1.3314,-6.0142 6.03657,-10.89566 11.55789,-13.62665 5.52132,-2.73099 11.79477,-3.55561 17.95268,-3.70867 6.99662,-0.17391 14.31787,0.56876 20.23379,4.30839 7.19438,4.5478 11.24768,13.01406 12.14491,21.4779 0.54579,5.14869 -1.7885,12.69457 -3.70087,17.81595 z"
     fill="#2f2e41"
     id="path1700"
     style="fill:#bfc0c0;fill-opacity:1" />
  <path
     d="m 455.69495,326.73206 c -0.0363,3.9e-4 -0.0723,-3.8e-4 -0.10861,-0.002 a -72.88485,72.88485 0 0 1 -1.63072,-145.467 -1.66268,1.66268 0 0 1 1.2584,0.43618 -1.64558,1.64558 0 0 1 0.53753,1.2048 l 1.59355,142.145 a -1.66856,1.66856 0 0 1 -1.65015,1.68331 z"
     fill="#3f3d56"
     id="path1702"
     style="fill:#4f5d75;fill-opacity:1" />
  <path
     d="m 512.85557,204.76759 a -2.14626,2.14626 0 0 0 -1.50641,0.64339 l -48.93467,50.04417 a -2.12319,2.12319 0 0 0 -0.60908,1.51791 l 0.76254,68.017 a -2.11556,2.11556 0 0 0 0.69123,1.54877 -2.1478,2.1478 0 0 0 1.6145,0.56065 -73.3615,73.3615 0 0 0 49.61222,-121.606 -2.14873,2.14873 0 0 0 -1.551,-0.72551 c -0.0263,-6.1e-4 -0.0529,-7e-4 -0.0793,-3.8e-4 z"
     fill="#e6e6e6"
     id="path1704"
     style="fill:#bfc0c0;fill-opacity:1" />
  <path
     d="m 463.09603,180.68172 a -2.15453,2.15453 0 0 0 -1.46424,0.59838 -2.11709,2.11709 0 0 0 -0.65725,1.56556 l 0.68791,61.36918 a -2.13689,2.13689 0 0 0 3.66432,1.47006 l 42.70152,-43.66977 a -2.14134,2.14134 0 0 0 -0.0358,-3.02811 q -0.0387,-0.0377 -0.0792,-0.0735 a -73.51556,73.51556 0 0 0 -44.68463,-18.22916 c -0.0441,-0.002 -0.0885,-0.003 -0.13263,-0.003 z"
     fill="#6c63ff"
     id="path1706"
     style="fill:#4f5d75;fill-opacity:1" />
  <path
     d="m 529.50696,252.48536 a -9.97532,9.97532 0 0 1 7.666,3.58362 l 44.80957,-1.40076 1.7539,-7.55432 23.18946,11.31628 -3,20.68915 -68.29029,-8.7439 a -9.99612,9.99612 0 1 1 -6.12866,-17.89007 z"
     fill="#9f616a"
     id="path1708"
     style="fill:#bfc0c0;fill-opacity:1" />
  <path
     d="m 610.70398,266.95121 1.24561,-61.63285 a -16.32125,16.32125 0 1 0 -32.63916,-0.33008 v 45.043 z"
     fill="#cbcbcb"
     id="path1710"
     style="fill:#bfc0c0;fill-opacity:1" />
  <path
     d="m 397.13498,550 h 381 a -1,1 0 1 0 0,-2 h -381 a -1,1 0 0 0 0,2 z"
     fill="#cbcbcb"
     id="path1712" />
</svg>
