<?xml version="1.0" encoding="UTF-8" standalone="no"?>
<svg
   xmlns:dc="http://purl.org/dc/elements/1.1/"
   xmlns:cc="http://creativecommons.org/ns#"
   xmlns:rdf="http://www.w3.org/1999/02/22-rdf-syntax-ns#"
   xmlns:svg="http://www.w3.org/2000/svg"
   xmlns="http://www.w3.org/2000/svg"
   xmlns:sodipodi="http://sodipodi.sourceforge.net/DTD/sodipodi-0.dtd"
   xmlns:inkscape="http://www.inkscape.org/namespaces/inkscape"
   id="a9f54f33-4909-4094-a7f7-0faa4fba6dcc"
   data-name="Layer 1"
   width="841.47998"
   height="677.13831"
   viewBox="0 0 841.47998 677.13831"
   version="1.1"
   sodipodi:docname="illustration0.svg"
   inkscape:version="1.0.2 (e86c870879, 2021-01-15, custom)">
  <metadata
     id="metadata992">
    <rdf:RDF>
      <cc:Work
         rdf:about="">
        <dc:format>image/svg+xml</dc:format>
        <dc:type
           rdf:resource="http://purl.org/dc/dcmitype/StillImage" />
      </cc:Work>
    </rdf:RDF>
  </metadata>
  <defs
     id="defs990" />
  <sodipodi:namedview
     pagecolor="#ffffff"
     bordercolor="#666666"
     borderopacity="1"
     objecttolerance="10"
     gridtolerance="10"
     guidetolerance="10"
     inkscape:pageopacity="0"
     inkscape:pageshadow="2"
     inkscape:window-width="1920"
     inkscape:window-height="1002"
     id="namedview988"
     showgrid="false"
     inkscape:zoom="0.88257013"
     inkscape:cx="290.26002"
     inkscape:cy="357.79382"
     inkscape:window-x="-8"
     inkscape:window-y="-8"
     inkscape:window-maximized="1"
     inkscape:current-layer="a9f54f33-4909-4094-a7f7-0faa4fba6dcc"
     inkscape:document-rotation="0" />
  <path
     id="path945"
     style="fill:#2d3142;fill-opacity:1;stroke:#4f5d75;stroke-width:4;stroke-miterlimit:4;stroke-dasharray:none;stroke-opacity:1"
     d="M 207.42383 293.16211 A 14.39729 14.39729 0 0 0 193.20508 306.11133 L 186.94531 331.45312 A 5.18412 5.18412 0 0 0 191.48633 337.85742 L 194.49023 338.14453 L 194.52734 408.40625 A 12.44288 12.44288 0 0 0 209.87109 427.77734 A 12.37584 12.37584 0 0 0 212.74023 409.01758 L 214.00781 340.00391 L 217.55078 340.3418 A 5.18412 5.18412 0 0 0 223.2207 334.91211 L 221.86133 308.92773 A 14.39729 14.39729 0 0 0 207.42383 293.16211 z " />
  <path
     d="M 3.0922696,595.37577 C 6.4099696,568.69764 22.94363,542.41193 48.3865,533.73014 a 123.86326,123.86326 0 0 0 0.006,85.04047 c 3.90959,10.5753 9.35913,21.9305 5.68164,32.5888 -2.28808,6.63189 -7.88558,11.70587 -14.14246,14.87849 -6.25726,3.17263 -13.20151,4.68476 -20.05886,6.16664 l -1.34956,1.11617 C 7.6373196,648.93971 -0.22557043,622.0539 3.0921296,595.37577 Z"
     fill="#f0f0f0"
     id="path913"
     style="fill:none;fill-opacity:1;stroke:#4f5d75;stroke-width:4;stroke-miterlimit:4;stroke-dasharray:none;stroke-opacity:1" />
  <path
     d="m 125.94,581.38054 c -0.3999,0.26 -0.7998,0.52 -1.20019,0.79 a 118.40629,118.40629 0 0 0 -15.1397,11.82 c -0.37012,0.33 -0.74024,0.67 -1.1001,1.01 a 124.82709,124.82709 0 0 0 -27.10986,37.11 121.22249,121.22249 0 0 0 -6.64015,17.18 c -2.4502,8.13 -4.46,17.14 -9.31006,23.79 a 20.7951,20.7951 0 0 1 -1.62012,2 H 19.98976 c -0.0996,-0.05 -0.19971,-0.09 -0.29981,-0.14 l -1.75,0.08 c 0.0703,-0.31 0.1499,-0.63 0.22022,-0.94 0.04,-0.18 0.0898,-0.36 0.12988,-0.54 0.0298,-0.12 0.0601,-0.24 0.0801,-0.35 0.01,-0.04 0.02,-0.08 0.0298,-0.11 0.02,-0.11 0.0503,-0.21 0.0703,-0.31 q 0.65993,-2.685 1.35987,-5.37 c 0,-0.01 0,-0.01 0.01,-0.02 3.59034,-13.63 8.3501,-27.08 15,-39.38 0.2002,-0.37 0.39991,-0.75 0.62012,-1.12 a 115.6734,115.6734 0 0 1 10.39014,-15.76 102.26018,102.26018 0 0 1 6.81006,-7.79 85.03649,85.03649 0 0 1 21.27956,-15.94 c 15.72022,-8.3 33.91992,-11.48 50.72022,-6.41 0.42963,0.13 0.85004,0.26 1.27978,0.4 z"
     fill="#f0f0f0"
     id="path923"
     style="fill:none;fill-opacity:1;stroke:#4f5d75;stroke-width:4;stroke-miterlimit:4;stroke-dasharray:none;stroke-opacity:1" />
  <path
     d="M 746.04875,65.297538 A 201.59192,201.59192 0 0 0 607.2549,2.0805382 V 204.09148 Z"
     fill="#3f3d56"
     id="path933"
     style="fill:none;fill-opacity:1;stroke:#4f5d75;stroke-width:4;stroke-miterlimit:4;stroke-dasharray:none;stroke-opacity:1" />
  <path
     d="M 746.04875,90.450538 607.2549,229.24444 H 801.223 A 201.48466,201.48466 0 0 0 746.04875,90.450538 Z"
     fill="#e4e4e4"
     id="path935"
     style="fill:none;fill-opacity:1;stroke:#4f5d75;stroke-width:4;stroke-miterlimit:4;stroke-dasharray:none;stroke-opacity:1" />
  <path
     d="m 801.43019,243.76054 a 202.72861,202.72861 0 0 1 -3.48,37.53 c -0.18018,0.98 -0.37012,1.95 -0.57032,2.92 a 200.54383,200.54383 0 0 1 -23.39987,61.32 c -0.58984,1.02 -1.2002,2.04 -1.81006,3.04 v 0.01 a 202.8148,202.8148 0 0 1 -40.6001,48.03 c -0.79,0.68994 -1.58007,1.37 -2.37988,2.04 a 201.30777,201.30777 0 0 1 -121.93996,47.12 v -202.01 z"
     fill="#f0f0f0"
     id="path937"
     style="fill:none;fill-opacity:1;stroke:#4f5d75;stroke-width:4;stroke-miterlimit:4;stroke-dasharray:none;stroke-opacity:1" />
  <path
     d="m 587.632,445.94692 c 2.685,0 5.35388,-0.0685 8.01382,-0.17224 V 243.75577 L 448.72952,390.67191 A 201.488,201.488 0 0 0 587.632,445.94692 Z"
     fill="#cacaca"
     id="path939"
     style="fill:none;fill-opacity:1;stroke:#4f5d75;stroke-width:4;stroke-miterlimit:4;stroke-dasharray:none;stroke-opacity:1" />
  <path
     d="m 587.90646,27.053298 c -111.6673,0 -202.19114,90.524082 -202.19114,202.191142 H 596.12955 V 27.233538 c -2.7289,-0.10921 -5.46726,-0.18024 -8.22309,-0.18024 z"
     fill="#6c63ff"
     id="path941"
     style="fill:none;fill-opacity:1;stroke:#4f5d75;stroke-width:4;stroke-miterlimit:4;stroke-dasharray:none;stroke-opacity:1" />
  <path
     d="m 539.66993,243.76054 -42.50976,42.51 -1.39017,1.39 -0.0303,0.03 -37.06983,37.06 -1.40967,1.41 -40.05023,40.05 -1.41016,1.41 v 0.01 l -23.04981,23.04 a 201.60824,201.60824 0 0 1 -63.29,-146.91 z"
     fill="#6c63ff"
     id="path943"
     style="fill:none;fill-opacity:1;stroke:#4f5d75;stroke-width:4;stroke-miterlimit:4;stroke-dasharray:none;stroke-opacity:1" />
  <path
     id="polygon949"
     style="fill:#2d3142;fill-opacity:1;stroke:#4f5d75;stroke-width:4;stroke-miterlimit:4;stroke-dasharray:none;stroke-opacity:1"
     d="M 259.98438 382.78711 L 201.29102 383.68945 L 197.04883 395.94727 C 179.61959 418.90707 183.02539 457.81445 183.02539 457.81445 L 171.47656 651.66992 L 174.20117 651.66992 L 174.20117 664.37305 L 184.31445 664.37305 L 185.88086 651.66992 L 187.97461 651.66992 L 225.0957 479.26367 L 265.51758 656.29297 L 267.41602 656.29297 L 267.41602 664.37305 L 277.5293 664.37305 L 278.52539 656.29297 L 282.42773 656.29297 C 282.35802 646.35521 282.27615 636.46958 282.18555 626.62695 L 282.3418 625.36523 L 282.17383 625.36523 C 281.1472 515.50193 278.17875 414.47956 259.98438 382.78711 z " />
  <path
     d="m 171.621,661.0718 19.91684,-8.1e-4 h 8e-4 a 12.69326,12.69326 0 0 1 12.69257,12.69237 v 0.41246 l -32.60961,10e-4 z"
     fill="#2f2e41"
     id="path951"
     style="fill:none;fill-opacity:1;stroke:#4f5d75;stroke-width:4;stroke-miterlimit:4;stroke-dasharray:none;stroke-opacity:1" />
  <path
     d="m 264.83663,661.0718 19.91683,-8.1e-4 h 8.1e-4 a 12.69326,12.69326 0 0 1 12.69257,12.69237 v 0.41246 l -32.60961,10e-4 z"
     fill="#2f2e41"
     id="path955"
     style="fill:none;fill-opacity:1;stroke:#4f5d75;stroke-width:4;stroke-miterlimit:4;stroke-dasharray:none;stroke-opacity:1" />
  <path
     d="m 209.51121,374.22372 a 5.61991,5.61991 0 0 1 -1.09015,-0.10759 v 0 a 5.63749,5.63749 0 0 1 -4.51581,-5.10751 c -0.62015,-8.49062 -3.69286,-23.27 -9.13282,-43.92841 a 34.76773,34.76773 0 0 1 54.89983,-36.30506 34.31861,34.31861 0 0 1 13.241,23.46926 c 2.70366,23.80964 -2.39349,47.715 -4.71026,56.88767 a 5.6498,5.6498 0 0 1 -5.3553,4.25611 l -43.21634,0.8342 c -0.0401,8.9e-4 -0.08,10e-4 -0.12015,10e-4 z"
     fill="#e4e4e4"
     id="path961"
     style="fill:#2d3142;fill-opacity:1;stroke:#4f5d75;stroke-width:4;stroke-miterlimit:4;stroke-dasharray:none;stroke-opacity:1" />
  <path
     id="path963"
     style="fill:#2d3142;fill-opacity:1;stroke:#4f5d75;stroke-width:4;stroke-miterlimit:4;stroke-dasharray:none;stroke-opacity:1"
     d="M 242.92383 289.37891 A 14.39729 14.39729 0 0 0 232.03516 313.1875 L 246.13867 335.15039 A 5.18412 5.18412 0 0 0 253.91211 336.25391 L 258.25977 332.45508 L 266.1543 340.83203 A 9.21617 9.21617 0 0 0 277.05469 342.7168 L 334.9375 313.15039 A 12.09288 12.09288 0 1 0 330.25 297.84375 A 12.12675 12.12675 0 0 0 329.61133 299.64258 L 275.51758 318.02539 L 274.85547 317.44727 A 5.18411 5.18411 0 0 0 273.58398 311.17969 L 253.77734 294.30859 A 14.39729 14.39729 0 0 0 242.92383 289.37891 z " />
  <path
     id="circle967"
     style="fill:none;fill-opacity:1;stroke:#4f5d75;stroke-width:4;stroke-miterlimit:4;stroke-dasharray:none;stroke-opacity:1"
     d="M 217.83398 211.76758 C 217.38845 211.76758 216.94609 211.77716 216.50586 211.79883 A 24.45493 24.45493 0 0 0 194.55469 229.39844 C 188.54437 249.4608 191.14063 271.6582 191.14062 271.6582 C 199.91325 275.62594 213.32111 278.56303 233.12305 276.14844 L 233.55078 274.35156 A 26.50798 26.50798 0 0 0 235.84375 273.32812 L 235.79297 275.78516 C 238.58407 275.39686 241.49608 274.89404 244.5293 274.2793 L 244.5293 266.29883 A 26.50798 26.50798 0 0 0 247.14453 262.38477 A 26.50798 26.50798 0 0 0 250.34961 248.16797 L 256.66211 248.16797 C 256.66207 228.7298 250.61977 212.98047 231.18164 212.98047 L 225.80664 212.98047 A 26.581 26.581 0 0 0 217.83398 211.76758 z " />
  <path
     d="m 836.98,447.08054 h -381 a 1,1 0 0 1 0,-2 h 381 a 1,1 0 0 1 0,2 z"
     fill="#f0f0f0"
     id="path971"
     style="fill:none;stroke:#4f5d75;stroke-width:4;stroke-miterlimit:4;stroke-dasharray:none;stroke-opacity:1" />
  <path
     d="m 837.48,574.58054 v -381 a 1,1 0 0 1 2,0 v 381 a 1,1 0 0 1 -2,0 z"
     fill="#f0f0f0"
     id="path973"
     style="fill:none;stroke:#4f5d75;stroke-width:4;stroke-miterlimit:4;stroke-dasharray:none;stroke-opacity:1" />
  <circle
     cx="780.47998"
     cy="482.08054"
     r="16"
     fill="#f0f0f0"
     id="circle975"
     style="fill:none;fill-opacity:1;stroke:#4f5d75;stroke-width:4;stroke-miterlimit:4;stroke-dasharray:none;stroke-opacity:1" />
  <circle
     cx="391.47998"
     cy="31.080538"
     r="16"
     fill="#f0f0f0"
     id="circle977"
     style="fill:none;fill-opacity:1;stroke:#4f5d75;stroke-width:4;stroke-miterlimit:4;stroke-dasharray:none;stroke-opacity:1" />
  <path
     d="m 385,674.08054 a 0.9965,0.9965 0 0 1 -1,1 H 2.9999996 a 1,1 0 1 1 0,-2 H 384 a 0.9965,0.9965 0 0 1 1,1 z"
     fill="#cacaca"
     id="path979"
     style="fill:none;stroke:#4f5d75;stroke-width:4;stroke-miterlimit:4;stroke-dasharray:none;stroke-opacity:1" />
  <path
     d="M 415.80006,367.62888 A 183.284,183.284 0 0 1 361.60133,243.83254 l 3.99756,-0.14355 a 179.29733,179.29733 0 0 0 53.021,121.103 z"
     fill="#3f3d56"
     id="path981"
     style="fill:none;stroke:#4f5d75;stroke-width:4;stroke-miterlimit:4;stroke-dasharray:none;stroke-opacity:1" />
  <path
     d="m 458.71,324.79054 -2.8999,2.74 a 183.90054,183.90054 0 0 1 -45.24024,-83.3 l 1.94043,-0.47 h 2.05957 a 179.99145,179.99145 0 0 0 44.1001,80.99 z"
     fill="#3f3d56"
     id="path983"
     style="fill:none;stroke:#4f5d75;stroke-width:4;stroke-miterlimit:4;stroke-dasharray:none;stroke-opacity:1" />
  <path
     d="m 497.27,286.41054 -1.5,1.25 -0.0303,0.03 -1.53955,1.28 a 183.75927,183.75927 0 0 1 -27.46045,-44.41 l 1.83007,-0.8 h 2.19043 a 179.583,179.583 0 0 0 26.39991,42.51 1.3086,1.3086 0 0 0 0.10986,0.14 z"
     fill="#3f3d56"
     id="path985"
     style="fill:none;stroke:#4f5d75;stroke-width:4;stroke-miterlimit:4;stroke-dasharray:none;stroke-opacity:1" />
</svg>
