<?xml version="1.0" encoding="UTF-8" standalone="no"?>
<svg
   xmlns:dc="http://purl.org/dc/elements/1.1/"
   xmlns:cc="http://creativecommons.org/ns#"
   xmlns:rdf="http://www.w3.org/1999/02/22-rdf-syntax-ns#"
   xmlns:svg="http://www.w3.org/2000/svg"
   xmlns="http://www.w3.org/2000/svg"
   xmlns:sodipodi="http://sodipodi.sourceforge.net/DTD/sodipodi-0.dtd"
   xmlns:inkscape="http://www.inkscape.org/namespaces/inkscape"
   id="b7342f9c-8658-4ac8-9cce-2636d2f50163"
   data-name="Layer 1"
   width="783.13501"
   height="554.95123"
   viewBox="0 0 783.13499 554.95123"
   version="1.1"
   sodipodi:docname="illustration1.svg"
   inkscape:version="1.0.2 (e86c870879, 2021-01-15, custom)">
  <metadata
     id="metadata1719">
    <rdf:RDF>
      <cc:Work
         rdf:about="">
        <dc:format>image/svg+xml</dc:format>
        <dc:type
           rdf:resource="http://purl.org/dc/dcmitype/StillImage" />
      </cc:Work>
    </rdf:RDF>
  </metadata>
  <defs
     id="defs1717" />
  <sodipodi:namedview
     pagecolor="#ffffff"
     bordercolor="#666666"
     borderopacity="1"
     objecttolerance="10"
     gridtolerance="10"
     guidetolerance="10"
     inkscape:pageopacity="0"
     inkscape:pageshadow="2"
     inkscape:window-width="1920"
     inkscape:window-height="1002"
     id="namedview1715"
     showgrid="false"
     inkscape:zoom="1.0794725"
     inkscape:cx="424.80168"
     inkscape:cy="295.59874"
     inkscape:window-x="-8"
     inkscape:window-y="-8"
     inkscape:window-maximized="1"
     inkscape:current-layer="b7342f9c-8658-4ac8-9cce-2636d2f50163"
     inkscape:document-rotation="0" />
  <path
     d="m 728.8513,552.24072 0.95117,-1.75879 c -12.75342,-6.89746 -28.62573,-15.481 -36.916,-29.56738 -8.17237,-13.88623 -8.35572,-32.74268 -0.47852,-49.21094 6.70361,-14.01562 19.01782,-26.57226 35.61108,-36.313 3.273,-1.92138 6.70874,-3.74218 10.0315,-5.50341 8.03149,-4.25635 16.33642,-8.65821 23.18432,-14.90284 9.43165,-8.60107 16.56788,-23.03466 11.249,-35.89111 a 23.85566,23.85566 0 0 0 -20.67749,-14.46728 l -0.1128,1.99707 a 21.8606,21.8606 0 0 1 18.94776,13.248 c 4.94263,11.94727 -1.83862,25.50489 -10.75415,33.63574 -6.66065,6.07374 -14.85181,10.415 -22.7732,14.61329 -3.34155,1.771 -6.79711,3.60253 -10.10766,5.54589 -16.93848,9.94336 -29.52637,22.79786 -36.40259,37.17432 -8.1604,17.06055 -7.94629,36.63672 0.55908,51.08887 8.57278,14.56597 24.71658,23.29692 37.6885,30.31157 z"
     fill="#f1f1f1"
     id="path1638"
     style="fill:none;fill-opacity:1;stroke:#4f5d75;stroke-width:4;stroke-miterlimit:4;stroke-dasharray:none;stroke-opacity:1" />
  <ellipse
     cx="-739.13062"
     cy="366.66714"
     rx="17.5"
     ry="8.5"
     fill="#f1f1f1"
     id="ellipse1640"
     style="fill:none;fill-opacity:1;stroke:#4f5d75;stroke-width:4;stroke-miterlimit:4;stroke-dasharray:none;stroke-opacity:1"
     transform="scale(-1,1)" />
  <ellipse
     cx="-725.13062"
     cy="422.66714"
     rx="17.5"
     ry="8.5"
     fill="#f1f1f1"
     id="ellipse1642"
     style="fill:none;fill-opacity:1;stroke:#4f5d75;stroke-width:4;stroke-miterlimit:4;stroke-dasharray:none;stroke-opacity:1"
     transform="scale(-1,1)" />
  <ellipse
     cx="-757.13062"
     cy="431.66714"
     rx="17.5"
     ry="8.5"
     fill="#f1f1f1"
     id="ellipse1644"
     style="fill:none;fill-opacity:1;stroke:#4f5d75;stroke-width:4;stroke-miterlimit:4;stroke-dasharray:none;stroke-opacity:1"
     transform="scale(-1,1)" />
  <ellipse
     cx="-707.13062"
     cy="478.66714"
     rx="17.5"
     ry="8.5"
     fill="#f1f1f1"
     id="ellipse1646"
     style="fill:none;fill-opacity:1;stroke:#4f5d75;stroke-width:4;stroke-miterlimit:4;stroke-dasharray:none;stroke-opacity:1"
     transform="scale(-1,1)" />
  <ellipse
     cx="-672.13062"
     cy="478.66714"
     rx="17.5"
     ry="8.5"
     fill="#f1f1f1"
     id="ellipse1648"
     style="fill:none;fill-opacity:1;stroke:#4f5d75;stroke-width:4;stroke-miterlimit:4;stroke-dasharray:none;stroke-opacity:1"
     transform="scale(-1,1)" />
  <path
     d="m 27.46384,466 h 284.83328 a 25.49265,25.49265 0 0 0 25.46385,-25.46385 V 27.46385 A 25.49264,25.49264 0 0 0 312.29712,2 H 27.46384 A 25.49264,25.49264 0 0 0 2,27.46385 v 413.0723 A 25.49264,25.49264 0 0 0 27.46384,466 Z"
     fill="#e6e6e6"
     id="path1650"
     style="fill:none;fill-opacity:1;stroke:#4f5d75;stroke-width:4;stroke-miterlimit:4;stroke-dasharray:none;stroke-opacity:1" />
  <path
     d="m 26.96249,449.7535 h 285.836 a 7.85848,7.85848 0 0 0 7.84951,-7.84951 v -415.808 a 7.85848,7.85848 0 0 0 -7.84951,-7.84951 h -285.836 a 7.85848,7.85848 0 0 0 -7.84951,7.84951 v 415.808 a 7.85848,7.85848 0 0 0 7.84951,7.84951 z"
     fill="#fff"
     id="path1652"
     style="fill:none;fill-opacity:1;stroke:#4f5d75;stroke-width:4;stroke-miterlimit:4;stroke-dasharray:none;stroke-opacity:1" />
  <path
     d="M 285.094,292.04973 H 54.672335 a 0.72116,0.72116 0 0 1 -0.72112,-0.72112 v -110.4411 a 0.721115,0.721115 0 0 1 1.44223,0 v 109.72 H 285.094 a 0.72112,0.72112 0 0 1 0,1.44223 z"
     fill="#3f3d56"
     id="path1656"
     style="fill:none;fill-opacity:1;stroke:#4f5d75;stroke-width:4;stroke-miterlimit:4;stroke-dasharray:none;stroke-opacity:1" />
  <path
     d="M 103.90341,284.11747 H 82.945655 a 2.143,2.143 0 0 1 -2.14063,-2.14046 v -28.89036 a 2.143,2.143 0 0 1 2.14063,-2.14046 h 20.957755 a 2.143,2.143 0 0 1 2.14063,2.14046 v 28.89036 a 2.143,2.143 0 0 1 -2.14063,2.14046 z"
     fill="#6c63ff"
     id="path1658"
     style="fill:none;fill-opacity:1;stroke:#4f5d75;stroke-width:4;stroke-miterlimit:4;stroke-dasharray:none;stroke-opacity:1" />
  <path
     d="m 142.12249,284.11747 h -20.95775 a 2.143,2.143 0 0 1 -2.14063,-2.14046 v -56.29272 a 2.143,2.143 0 0 1 2.14063,-2.14045 h 20.95775 a 2.143,2.143 0 0 1 2.14063,2.14045 v 56.29272 a 2.143,2.143 0 0 1 -2.14063,2.14046 z"
     fill="#6c63ff"
     id="path1660"
     style="fill:none;fill-opacity:1;stroke:#4f5d75;stroke-width:4;stroke-miterlimit:4;stroke-dasharray:none;stroke-opacity:1" />
  <path
     d="m 180.34156,284.11747 h -20.95774 a 2.143,2.143 0 0 1 -2.14063,-2.14046 v -28.89036 a 2.143,2.143 0 0 1 2.14063,-2.14046 h 20.95774 a 2.143,2.143 0 0 1 2.14064,2.14046 v 28.89036 a 2.143,2.143 0 0 1 -2.14064,2.14046 z"
     fill="#6c63ff"
     id="path1662"
     style="fill:none;fill-opacity:1;stroke:#4f5d75;stroke-width:4;stroke-miterlimit:4;stroke-dasharray:none;stroke-opacity:1" />
  <path
     d="m 218.56064,284.11747 h -20.95775 a 2.09618,2.09618 0 0 1 -2.14063,-2.04349 v -67.30337 a 2.09617,2.09617 0 0 1 2.14063,-2.04349 h 20.95775 a 2.09617,2.09617 0 0 1 2.14063,2.04349 v 67.30337 a 2.09618,2.09618 0 0 1 -2.14063,2.04349 z"
     fill="#6c63ff"
     id="path1664"
     style="fill:none;fill-opacity:1;stroke:#4f5d75;stroke-width:4;stroke-miterlimit:4;stroke-dasharray:none;stroke-opacity:1" />
  <path
     d="m 256.77972,284.11747 h -20.95775 a 2.143,2.143 0 0 1 -2.14063,-2.14046 v -86.57953 a 2.143,2.143 0 0 1 2.14063,-2.14046 h 20.95775 a 2.143,2.143 0 0 1 2.14063,2.14046 v 86.57953 a 2.143,2.143 0 0 1 -2.14063,2.14046 z"
     fill="#6c63ff"
     id="path1666"
     style="fill:none;fill-opacity:1;stroke:#4f5d75;stroke-width:4;stroke-miterlimit:4;stroke-dasharray:none;stroke-opacity:1" />
  <circle
     cx="93.424568"
     cy="237.96613"
     r="4.3266902"
     fill="#3f3d56"
     id="circle1668"
     style="fill:none;fill-opacity:1;stroke:#4f5d75;stroke-width:4;stroke-miterlimit:4;stroke-dasharray:none;stroke-opacity:1" />
  <circle
     cx="131.64359"
     cy="209.84267"
     r="4.3266902"
     fill="#3f3d56"
     id="circle1670"
     style="fill:none;fill-opacity:1;stroke:#4f5d75;stroke-width:4;stroke-miterlimit:4;stroke-dasharray:none;stroke-opacity:1" />
  <circle
     cx="169.86263"
     cy="237.96613"
     r="4.3266902"
     fill="#3f3d56"
     id="circle1672"
     style="fill:none;fill-opacity:1;stroke:#4f5d75;stroke-width:4;stroke-miterlimit:4;stroke-dasharray:none;stroke-opacity:1" />
  <circle
     cx="208.08176"
     cy="196.14148"
     r="4.3266902"
     fill="#3f3d56"
     id="circle1674"
     style="fill:none;fill-opacity:1;stroke:#4f5d75;stroke-width:4;stroke-miterlimit:4;stroke-dasharray:none;stroke-opacity:1" />
  <circle
     cx="246.30084"
     cy="180.27696"
     r="4.3266902"
     fill="#3f3d56"
     id="circle1676"
     style="fill:none;fill-opacity:1;stroke:#4f5d75;stroke-width:4;stroke-miterlimit:4;stroke-dasharray:none;stroke-opacity:1" />
  <polygon
     points="611.143,234.997 649.031,193.534 649.184,193.472 687.403,178.073 687.942,179.411 649.875,194.749 611.325,236.935 573.015,208.241 535.228,236.543 534.363,235.389 573.015,206.438 "
     fill="#3f3d56"
     id="polygon1678"
     style="fill:none;fill-opacity:1;stroke:#4f5d75;stroke-width:4;stroke-miterlimit:4;stroke-dasharray:none;stroke-opacity:1"
     transform="translate(-441.37133,2)" />
  <path
     id="path1680"
     style="fill:none;fill-opacity:1;stroke:#4f5d75;stroke-width:4;stroke-miterlimit:4;stroke-dasharray:none;stroke-opacity:1"
     d="M 578.60352 174.60547 L 553.25977 188.99414 L 548.2832 212.12109 L 547.55859 229.02539 L 514.17383 230.06836 A 9.97532 9.97532 0 0 0 506.50781 226.48633 A 9.99612 9.99612 0 1 0 512.63477 244.375 L 546.71094 248.73828 L 546.50781 253.48633 L 549.50781 353.48633 C 552.29827 352.99884 549.83631 353.42984 552.41992 352.97852 L 559.28906 428.99219 L 572.81445 528.11328 L 575.89453 528.11328 L 577.24805 539.08594 L 589.50781 539.08594 L 589.50781 528.11328 L 595.16602 528.11328 L 595.88477 483.66016 L 613.38672 523.48633 L 620.0332 523.48633 L 623.99023 532.74023 L 635.76758 529.33594 L 634.07812 523.48633 L 635.73633 523.48633 L 609.30664 430.88086 L 614.61523 362.51367 C 618.16184 353.95546 618.71423 346.59465 618.42383 341.45312 C 618.46799 341.44548 623.23633 340.61328 623.23633 340.61328 L 613.23633 294.61328 C 613.23633 294.61328 611.23722 274.61299 615.62305 232.9707 C 620.00888 191.32841 583.74414 181.79883 583.74414 181.79883 L 578.60352 174.60547 z " />
  <path
     d="m 592.63491,535.08257 -24.144,-10e-4 h -10e-4 a 15.3873,15.3873 0 0 0 -15.38647,15.38623 v 0.5 l 39.53076,10e-4 z"
     fill="#2f2e41"
     id="path1684"
     style="fill:none;fill-opacity:1;stroke:#4f5d75;stroke-width:4;stroke-miterlimit:4;stroke-dasharray:none;stroke-opacity:1" />
  <path
     d="m 637.66138,524.62264 -23.19508,6.70245 -9.4e-4,2.7e-4 a 15.38729,15.38729 0 0 0 -10.50969,19.05325 l 0.13882,0.48034 37.977,-10.974 z"
     fill="#2f2e41"
     id="path1688"
     style="fill:none;fill-opacity:1;stroke:#4f5d75;stroke-width:4;stroke-miterlimit:4;stroke-dasharray:none;stroke-opacity:1" />
  <path
     id="circle1694"
     style="fill:none;fill-opacity:1;stroke:#4f5d75;stroke-width:4;stroke-miterlimit:4;stroke-dasharray:none;stroke-opacity:1"
     d="M 552.00781 116.52539 C 551.12647 116.51442 550.24567 116.52123 549.37109 116.54297 C 543.21318 116.69603 536.94124 117.52096 531.41992 120.25195 C 525.8986 122.98294 521.19273 127.86471 519.86133 133.87891 C 518.76964 138.81043 521.14626 145.17242 526.16797 145.71484 C 529.252 146.04796 532.60112 144.16231 535.53711 143.84766 A -24.561029 24.561029 0 0 0 527.00781 152.37695 A -24.561029 24.561029 0 0 0 551.56836 176.9375 A -24.561029 24.561029 0 0 0 565.19141 163.31445 C 569.02456 166.9677 576.00872 165.60799 578.04883 160.14453 C 579.9612 155.02315 582.29579 147.47877 581.75 142.33008 C 580.85277 133.86624 576.79985 125.39936 569.60547 120.85156 C 564.42904 117.57939 558.17722 116.60216 552.00781 116.52539 z " />
  <path
     d="m 457.69495,328.73206 c -0.0363,3.9e-4 -0.0723,-3.8e-4 -0.10861,-0.002 a 72.88485,72.88485 0 0 1 -1.63072,-145.467 1.66268,1.66268 0 0 1 1.2584,0.43618 1.64558,1.64558 0 0 1 0.53753,1.2048 l 1.59355,142.145 a 1.66856,1.66856 0 0 1 -1.65015,1.68331 z"
     fill="#3f3d56"
     id="path1702"
     style="fill:none;fill-opacity:1;stroke:#4f5d75;stroke-width:4;stroke-miterlimit:4;stroke-dasharray:none;stroke-opacity:1" />
  <path
     d="m 514.85557,206.76759 a 2.14626,2.14626 0 0 0 -1.50641,0.64339 l -48.93467,50.04417 a 2.12319,2.12319 0 0 0 -0.60908,1.51791 l 0.76254,68.017 a 2.11556,2.11556 0 0 0 0.69123,1.54877 2.1478,2.1478 0 0 0 1.6145,0.56065 73.3615,73.3615 0 0 0 49.61222,-121.606 2.14873,2.14873 0 0 0 -1.551,-0.72551 c -0.0263,-6.1e-4 -0.0529,-7e-4 -0.0793,-3.8e-4 z"
     fill="#e6e6e6"
     id="path1704"
     style="fill:none;fill-opacity:1;stroke:#4f5d75;stroke-width:4;stroke-miterlimit:4;stroke-dasharray:none;stroke-opacity:1" />
  <path
     d="m 465.09603,182.68172 a 2.15453,2.15453 0 0 0 -1.46424,0.59838 2.11709,2.11709 0 0 0 -0.65725,1.56556 l 0.68791,61.36918 a 2.13689,2.13689 0 0 0 3.66432,1.47006 l 42.70152,-43.66977 a 2.14134,2.14134 0 0 0 -0.0358,-3.02811 q -0.0387,-0.0377 -0.0792,-0.0735 a 73.51556,73.51556 0 0 0 -44.68463,-18.22916 c -0.0441,-0.002 -0.0885,-0.003 -0.13263,-0.003 z"
     fill="#6c63ff"
     id="path1706"
     style="fill:none;fill-opacity:1;stroke:#4f5d75;stroke-width:4;stroke-miterlimit:4;stroke-dasharray:none;stroke-opacity:1" />
  <path
     id="path1708"
     style="fill:#2d3142;fill-opacity:1;stroke:#4f5d75;stroke-width:4;stroke-miterlimit:4;stroke-dasharray:none;stroke-opacity:1"
     d="M 597.44141 190.66797 A 16.32125 16.32125 0 0 0 581.31055 206.98828 L 581.31055 252.03125 L 584.64258 253.82617 L 583.98242 256.66797 L 539.17383 258.06836 A 9.97532 9.97532 0 0 0 531.50781 254.48633 A 9.99612 9.99612 0 1 0 537.63477 272.375 L 605.92578 281.11914 L 608.05273 266.44531 L 612.70312 268.95117 L 613.94922 207.31836 A 16.32125 16.32125 0 0 0 597.44141 190.66797 z " />
  <path
     d="m 399.13498,552 h 381 a 1,1 0 1 0 0,-2 h -381 a 1,1 0 0 0 0,2 z"
     fill="#cbcbcb"
     id="path1712"
     style="fill:none;stroke:#4f5d75;stroke-width:4;stroke-miterlimit:4;stroke-dasharray:none;stroke-opacity:1" />
</svg>
