<?xml version="1.0" encoding="UTF-8" standalone="no"?>
<svg
   xmlns:dc="http://purl.org/dc/elements/1.1/"
   xmlns:cc="http://creativecommons.org/ns#"
   xmlns:rdf="http://www.w3.org/1999/02/22-rdf-syntax-ns#"
   xmlns:svg="http://www.w3.org/2000/svg"
   xmlns="http://www.w3.org/2000/svg"
   xmlns:sodipodi="http://sodipodi.sourceforge.net/DTD/sodipodi-0.dtd"
   xmlns:inkscape="http://www.inkscape.org/namespaces/inkscape"
   width="201.08334mm"
   height="201.08334mm"
   viewBox="0 0 201.08334 201.08335"
   version="1.1"
   id="svg8"
   inkscape:version="1.0.2 (e86c870879, 2021-01-15, custom)"
   sodipodi:docname="solaire.svg">
  <defs
     id="defs2" />
  <sodipodi:namedview
     id="base"
     pagecolor="#ffffff"
     bordercolor="#666666"
     borderopacity="1.0"
     inkscape:pageopacity="0.0"
     inkscape:pageshadow="2"
     inkscape:zoom="0.82030997"
     inkscape:cx="284.89383"
     inkscape:cy="360.86707"
     inkscape:document-units="mm"
     inkscape:current-layer="layer1"
     inkscape:document-rotation="0"
     showgrid="true"
     inkscape:window-width="1920"
     inkscape:window-height="1002"
     inkscape:window-x="-8"
     inkscape:window-y="-8"
     inkscape:window-maximized="1">
    <inkscape:grid
       type="xygrid"
       id="grid833"
       originx="5.2916773"
       originy="-42.333336" />
  </sodipodi:namedview>
  <metadata
     id="metadata5">
    <rdf:RDF>
      <cc:Work
         rdf:about="">
        <dc:format>image/svg+xml</dc:format>
        <dc:type
           rdf:resource="http://purl.org/dc/dcmitype/StillImage" />
        <dc:title />
      </cc:Work>
    </rdf:RDF>
  </metadata>
  <g
     inkscape:groupmode="layer"
     id="layer3"
     inkscape:label="pillier"
     transform="translate(5.2916765,-42.333336)" />
  <g
     inkscape:label="Elices"
     inkscape:groupmode="layer"
     id="layer1"
     transform="translate(5.2916765,-42.333336)">
    <path
       id="path2533"
       style="font-variation-settings:normal;vector-effect:none;fill:none;fill-opacity:1;fill-rule:evenodd;stroke:#ef8354;stroke-width:10.00000013;stroke-linecap:butt;stroke-linejoin:miter;stroke-miterlimit:4;stroke-dasharray:none;stroke-dashoffset:0;stroke-opacity:1;stop-color:#000000"
       d="M 191.96289 57.080078 A 139.62777 139.62777 0 0 0 52.333984 196.70703 A 139.62777 139.62777 0 0 0 168.5293 334.35352 L 97.755859 611.01562 C 92.387902 631.99945 92.388958 632 111.85742 632 L 691.85742 632 C 712.38895 632 712.38727 632.00055 707.38477 612.44531 L 607.56055 222.2168 C 602.38868 201.99939 601.92184 202 581.85742 202 L 331.48828 202 A 139.62777 139.62777 0 0 0 331.58984 196.70703 A 139.62777 139.62777 0 0 0 191.96289 57.080078 z "
       transform="matrix(0.26458333,0,0,0.26458333,-5.2916765,42.333336)" />
    <path
       id="path2535"
       style="font-variation-settings:normal;vector-effect:none;fill:none;fill-opacity:1;fill-rule:evenodd;stroke:#ef8354;stroke-width:10.00000013;stroke-linecap:butt;stroke-linejoin:miter;stroke-miterlimit:4;stroke-dasharray:none;stroke-dashoffset:0;stroke-opacity:1;stop-color:#000000"
       d="M 209.91406 95.951172 A 101.36179 101.36179 0 0 0 200.71484 96.375 A 107.25042 107.25042 0 0 1 297.83984 203.14648 A 107.25042 107.25042 0 0 1 257.96094 286.5957 A 101.36179 101.36179 0 0 0 311.33398 197.3125 A 101.36179 101.36179 0 0 0 209.97266 95.951172 A 101.36179 101.36179 0 0 0 209.91406 95.951172 z "
       transform="matrix(0.26458333,0,0,0.26458333,-5.2916765,42.333336)" />
  </g>
  <g
     inkscape:groupmode="layer"
     id="layer2"
     inkscape:label="rotor"
     transform="translate(5.2916765,-42.333336)" />
</svg>
