<?xml version="1.0" encoding="UTF-8" standalone="no"?>
<svg
   xmlns:dc="http://purl.org/dc/elements/1.1/"
   xmlns:cc="http://creativecommons.org/ns#"
   xmlns:rdf="http://www.w3.org/1999/02/22-rdf-syntax-ns#"
   xmlns:svg="http://www.w3.org/2000/svg"
   xmlns="http://www.w3.org/2000/svg"
   xmlns:sodipodi="http://sodipodi.sourceforge.net/DTD/sodipodi-0.dtd"
   xmlns:inkscape="http://www.inkscape.org/namespaces/inkscape"
   height="800"
   width="1200"
   viewBox="-11.493675 -16.3118 99.61185 97.8708"
   version="1.1"
   id="svg6"
   sodipodi:docname="github.svg"
   inkscape:version="1.0.2 (e86c870879, 2021-01-15, custom)">
  <metadata
     id="metadata12">
    <rdf:RDF>
      <cc:Work
         rdf:about="">
        <dc:format>image/svg+xml</dc:format>
        <dc:type
           rdf:resource="http://purl.org/dc/dcmitype/StillImage" />
        <dc:title></dc:title>
      </cc:Work>
    </rdf:RDF>
  </metadata>
  <defs
     id="defs10" />
  <sodipodi:namedview
     pagecolor="#ffffff"
     bordercolor="#666666"
     borderopacity="1"
     objecttolerance="10"
     gridtolerance="10"
     guidetolerance="10"
     inkscape:pageopacity="0"
     inkscape:pageshadow="2"
     inkscape:window-width="1920"
     inkscape:window-height="1002"
     id="namedview8"
     showgrid="false"
     inkscape:zoom="1.0116667"
     inkscape:cx="600"
     inkscape:cy="400"
     inkscape:window-x="-8"
     inkscape:window-y="-8"
     inkscape:window-maximized="1"
     inkscape:current-layer="svg6" />
  <path
     fill="#ffffff"
     d="m 27.426553,52.193484 c 0,0.265182 -0.304957,0.477326 -0.689471,0.477326 -0.437549,0.03978 -0.742509,-0.172368 -0.742509,-0.477326 0,-0.265181 0.30496,-0.477326 0.689472,-0.477326 0.397772,-0.03977 0.742508,0.172368 0.742508,0.477326 z m -4.123569,-0.596657 c -0.09282,0.265182 0.172367,0.570139 0.570139,0.649694 0.344734,0.132591 0.742508,0 0.822062,-0.265183 0.07955,-0.26518 -0.172367,-0.570139 -0.57014,-0.689471 -0.344736,-0.09282 -0.729249,0.03978 -0.822061,0.30496 z m 5.860506,-0.225405 c -0.384511,0.09282 -0.649693,0.344736 -0.609916,0.649695 0.03977,0.265182 0.384514,0.437549 0.782287,0.344735 0.384511,-0.09281 0.649693,-0.344735 0.609916,-0.609916 -0.03977,-0.251923 -0.397773,-0.42429 -0.782287,-0.384514 z M 37.887959,0.56267098 c -18.390329,0 -32.458202,13.96179902 -32.458202,32.35212702 0,14.704308 9.254831,27.287163 22.474123,31.715692 1.697161,0.30496 2.293819,-0.742506 2.293819,-1.604346 0,-0.822061 -0.03977,-5.356664 -0.03977,-8.141069 0,0 -9.281349,1.988861 -11.230432,-3.951203 0,0 -1.511534,-3.858388 -3.686021,-4.852818 0,0 -3.036328,-2.081674 0.212146,-2.041897 0,0 3.301508,0.265182 5.118,3.42084 2.903736,5.118001 7.769814,3.646244 9.665861,2.771145 0.304959,-2.121451 1.166799,-3.593206 2.121451,-4.468306 C 24.947115,44.940774 17.469,43.866789 17.469,31.111564 c 0,-3.646242 1.007689,-5.475994 3.12914,-7.80959 -0.344736,-0.86184 -1.471756,-4.41527 0.344736,-9.002909 2.771146,-0.861839 9.148758,3.579949 9.148758,3.579949 2.651813,-0.742507 5.502514,-1.127021 8.326694,-1.127021 2.824183,0 5.674883,0.384514 8.326697,1.127021 0,0 6.377612,-4.455046 9.148756,-3.579949 1.816493,4.600898 0.689471,8.141069 0.344737,9.002909 2.12145,2.346855 3.420839,4.176607 3.420839,7.80959 0,12.795003 -7.809591,13.815951 -15.221411,14.651272 1.219835,1.047467 2.254042,3.036326 2.254042,6.152208 0,4.468305 -0.03978,9.997337 -0.03978,11.084582 0,0.861839 0.609918,1.909305 2.29382,1.604347 C 62.205095,60.201961 71.194743,47.619106 71.194743,32.914798 71.194743,14.52447 56.278291,0.56267098 37.887962,0.56267098 Z M 18.317573,46.293199 c -0.172368,0.13259 -0.13259,0.437549 0.09282,0.689471 0.212146,0.212145 0.517104,0.304959 0.689471,0.13259 0.172369,-0.13259 0.132591,-0.437548 -0.09281,-0.689471 -0.212145,-0.212144 -0.517104,-0.304957 -0.689472,-0.13259 z m -1.431981,-1.073985 c -0.09281,0.172368 0.03978,0.384513 0.304961,0.517104 0.212144,0.13259 0.477326,0.09282 0.570139,-0.09282 0.09282,-0.172367 -0.03978,-0.384513 -0.304959,-0.517103 -0.26518,-0.07955 -0.477326,-0.03977 -0.570141,0.09282 z m 4.295939,4.720229 c -0.212144,0.172367 -0.132591,0.57014 0.17237,0.822062 0.304957,0.30496 0.689471,0.344736 0.861838,0.132591 0.172367,-0.172368 0.09282,-0.570141 -0.172367,-0.822062 -0.2917,-0.304959 -0.689471,-0.344737 -0.861841,-0.132591 z M 19.669998,47.99036 c -0.212145,0.132591 -0.212145,0.477326 0,0.782285 0.212144,0.304957 0.57014,0.437549 0.742507,0.304957 0.212146,-0.172367 0.212146,-0.517102 0,-0.822062 -0.185625,-0.304957 -0.530363,-0.437549 -0.742507,-0.26518 z"
     id="path2-8"
     style="fill:#24292e;fill-opacity:1;stroke-width:0.132591" />
</svg>
