<?xml version="1.0" encoding="UTF-8" standalone="no"?>
<svg
   xmlns:dc="http://purl.org/dc/elements/1.1/"
   xmlns:cc="http://creativecommons.org/ns#"
   xmlns:rdf="http://www.w3.org/1999/02/22-rdf-syntax-ns#"
   xmlns:svg="http://www.w3.org/2000/svg"
   xmlns="http://www.w3.org/2000/svg"
   xmlns:sodipodi="http://sodipodi.sourceforge.net/DTD/sodipodi-0.dtd"
   xmlns:inkscape="http://www.inkscape.org/namespaces/inkscape"
   height="826.37628"
   width="826.37628"
   viewBox="-11.493675 -16.3118 68.597392 101.09763"
   version="1.1"
   id="svg6"
   sodipodi:docname="openData.svg"
   inkscape:version="1.0.2 (e86c870879, 2021-01-15, custom)">
  <metadata
     id="metadata12">
    <rdf:RDF>
      <cc:Work
         rdf:about="">
        <dc:format>image/svg+xml</dc:format>
        <dc:type
           rdf:resource="http://purl.org/dc/dcmitype/StillImage" />
        <dc:title />
      </cc:Work>
    </rdf:RDF>
  </metadata>
  <defs
     id="defs10" />
  <sodipodi:namedview
     pagecolor="#ffffff"
     bordercolor="#666666"
     borderopacity="1"
     objecttolerance="10"
     gridtolerance="10"
     guidetolerance="10"
     inkscape:pageopacity="0"
     inkscape:pageshadow="2"
     inkscape:window-width="1920"
     inkscape:window-height="1002"
     id="namedview8"
     showgrid="false"
     inkscape:zoom="0.71535638"
     inkscape:cx="504.24995"
     inkscape:cy="479.24051"
     inkscape:window-x="-8"
     inkscape:window-y="-8"
     inkscape:window-maximized="1"
     inkscape:current-layer="svg6"
     inkscape:document-rotation="0" />
  <path
     d="m 20.40889,53.646769 c -6.313008,0 -11.5014415,-4.715589 -11.5014415,-10.581315 V 41.148546 H 33.443855 c 8.447161,0 15.335249,-6.389693 15.335249,-14.248999 v -9.035026 c 0,-7.846532 -6.875303,-14.2362239 -15.335249,-14.2362239 H 12.127863 A 16.613186,16.613186 0 0 0 8.5751865,3.8966519 14.530148,14.530148 0 0 0 -3.1690505,17.864501 v 5.303443 a 2.0830381,2.0830381 0 0 0 1.955246,2.185273 h 8.268252 a 2.0830381,2.0830381 0 0 0 1.955247,-2.185273 v -3.37376 A 5.2139846,5.2139846 0 0 1 14.440921,14.83579 h 16.715424 a 5.2139846,5.2139846 0 0 1 5.431229,4.958394 v 5.354566 a 5.2139846,5.2139846 0 0 1 -5.431229,4.958392 h -41.315718 v 11.10528 h 6.9647605 v 1.916898 c 0,12.025399 10.645223,21.724942 23.6801755,21.724942 H 55.769415 V 53.69789 Z"
     fill="#93c90e"
     id="path10"
     style="stroke-width:1.27793;fill:#ffffff;fill-opacity:1" />
</svg>
