<?xml version="1.0" encoding="UTF-8" standalone="no"?>
<svg
   xmlns:dc="http://purl.org/dc/elements/1.1/"
   xmlns:cc="http://creativecommons.org/ns#"
   xmlns:rdf="http://www.w3.org/1999/02/22-rdf-syntax-ns#"
   xmlns:svg="http://www.w3.org/2000/svg"
   xmlns="http://www.w3.org/2000/svg"
   xmlns:sodipodi="http://sodipodi.sourceforge.net/DTD/sodipodi-0.dtd"
   xmlns:inkscape="http://www.inkscape.org/namespaces/inkscape"
   height="800"
   width="1200"
   viewBox="-11.493675 -16.3118 99.61185 97.8708"
   version="1.1"
   id="svg6"
   sodipodi:docname="openData.svg"
   inkscape:version="1.0.2 (e86c870879, 2021-01-15, custom)">
  <metadata
     id="metadata12">
    <rdf:RDF>
      <cc:Work
         rdf:about="">
        <dc:format>image/svg+xml</dc:format>
        <dc:type
           rdf:resource="http://purl.org/dc/dcmitype/StillImage" />
        <dc:title></dc:title>
      </cc:Work>
    </rdf:RDF>
  </metadata>
  <defs
     id="defs10" />
  <sodipodi:namedview
     pagecolor="#ffffff"
     bordercolor="#666666"
     borderopacity="1"
     objecttolerance="10"
     gridtolerance="10"
     guidetolerance="10"
     inkscape:pageopacity="0"
     inkscape:pageshadow="2"
     inkscape:window-width="1920"
     inkscape:window-height="1002"
     id="namedview8"
     showgrid="false"
     inkscape:zoom="1.0116667"
     inkscape:cx="600"
     inkscape:cy="400"
     inkscape:window-x="-8"
     inkscape:window-y="-8"
     inkscape:window-maximized="1"
     inkscape:current-layer="svg6" />
  <path
     d="m 35.916119,52.033345 c -6.313008,0 -11.501442,-4.715589 -11.501442,-10.581315 v -1.916908 h 24.536407 c 8.447161,0 15.335249,-6.389693 15.335249,-14.248999 v -9.035026 c 0,-7.8465323 -6.875303,-14.2362239 -15.335249,-14.2362239 H 27.635092 A 16.613186,16.613186 0 0 0 24.082415,2.2832279 14.530148,14.530148 0 0 0 12.338178,16.251077 v 5.303443 a 2.0830381,2.0830381 0 0 0 1.955246,2.185273 h 8.268252 a 2.0830381,2.0830381 0 0 0 1.955247,-2.185273 v -3.37376 a 5.2139846,5.2139846 0 0 1 5.431227,-4.958394 h 16.715424 a 5.2139846,5.2139846 0 0 1 5.431229,4.958394 v 5.354566 a 5.2139846,5.2139846 0 0 1 -5.431229,4.958392 H 5.3478563 v 11.10528 h 6.9647597 v 1.916898 c 0,12.025399 10.645223,21.724942 23.680176,21.724942 H 71.276644 V 52.084466 Z"
     fill="#93c90e"
     id="path10"
     style="stroke-width:1.27793" />
</svg>
